<mxfile host="65bd71144e">
    <diagram id="Q709iS3c7fx8tOEJCsv3" name="第 1 页">
        <mxGraphModel dx="4393" dy="3697" grid="1" gridSize="10" guides="1" tooltips="1" connect="1" arrows="1" fold="1" page="1" pageScale="1" pageWidth="850" pageHeight="1100" math="0" shadow="0">
            <root>
                <mxCell id="0"/>
                <mxCell id="1" parent="0"/>
                <mxCell id="19" value="" style="rounded=0;whiteSpace=wrap;html=1;labelBackgroundColor=none;labelBorderColor=none;strokeColor=#FFFFFF;fontFamily=Lato;fontSource=https%3A%2F%2Ffonts.googleapis.com%2Fcss%3Ffamily%3DLato;fontColor=#FFFFFF;fillColor=#CCE5FF;movable=0;resizable=0;rotatable=0;deletable=0;editable=0;connectable=0;" parent="1" vertex="1">
                    <mxGeometry x="-460" y="-250" width="2300" height="2340" as="geometry"/>
                </mxCell>
                <mxCell id="288" value="&lt;div style=&quot;background-color:#222222;color:#f7f1ff&quot;&gt;&lt;pre style=&quot;font-size: 9.8pt;&quot;&gt;&lt;br&gt;&lt;/pre&gt;&lt;/div&gt;" style="rounded=1;whiteSpace=wrap;html=1;fillColor=#CCE5FF;arcSize=11;strokeColor=#3399FF;strokeWidth=2;shadow=1;glass=0;" parent="1" vertex="1">
                    <mxGeometry x="145" y="870" width="660" height="690" as="geometry"/>
                </mxCell>
                <mxCell id="287" value="&lt;div style=&quot;background-color:#222222;color:#f7f1ff&quot;&gt;&lt;pre style=&quot;font-size: 9.8pt;&quot;&gt;&lt;br&gt;&lt;/pre&gt;&lt;/div&gt;" style="rounded=1;whiteSpace=wrap;html=1;fillColor=#CCE5FF;arcSize=11;strokeColor=#3399FF;strokeWidth=2;shadow=1;glass=0;" parent="1" vertex="1">
                    <mxGeometry x="130" y="880" width="660" height="690" as="geometry"/>
                </mxCell>
                <mxCell id="286" value="&lt;div style=&quot;background-color:#222222;color:#f7f1ff&quot;&gt;&lt;pre style=&quot;font-size: 9.8pt;&quot;&gt;&lt;br&gt;&lt;/pre&gt;&lt;/div&gt;" style="rounded=1;whiteSpace=wrap;html=1;fillColor=#CCE5FF;arcSize=11;strokeColor=#3399FF;strokeWidth=2;shadow=1;glass=0;" parent="1" vertex="1">
                    <mxGeometry x="115" y="890" width="660" height="690" as="geometry"/>
                </mxCell>
                <mxCell id="285" value="&lt;div style=&quot;background-color:#222222;color:#f7f1ff&quot;&gt;&lt;pre style=&quot;font-size: 9.8pt;&quot;&gt;&lt;br&gt;&lt;/pre&gt;&lt;/div&gt;" style="rounded=1;whiteSpace=wrap;html=1;fillColor=#CCE5FF;arcSize=11;strokeColor=#3399FF;strokeWidth=2;shadow=1;glass=0;" parent="1" vertex="1">
                    <mxGeometry x="100" y="900" width="660" height="690" as="geometry"/>
                </mxCell>
                <mxCell id="282" value="&lt;div style=&quot;background-color:#222222;color:#f7f1ff&quot;&gt;&lt;pre style=&quot;font-size: 9.8pt;&quot;&gt;&lt;br&gt;&lt;/pre&gt;&lt;/div&gt;" style="rounded=1;whiteSpace=wrap;html=1;fillColor=#CCE5FF;arcSize=11;strokeColor=#3399FF;strokeWidth=2;shadow=1;glass=0;" parent="1" vertex="1">
                    <mxGeometry x="85" y="910" width="660" height="690" as="geometry"/>
                </mxCell>
                <mxCell id="281" value="&lt;div style=&quot;background-color:#222222;color:#f7f1ff&quot;&gt;&lt;pre style=&quot;font-size: 9.8pt;&quot;&gt;&lt;br&gt;&lt;/pre&gt;&lt;/div&gt;" style="rounded=1;whiteSpace=wrap;html=1;fillColor=#CCE5FF;arcSize=11;strokeColor=#3399FF;strokeWidth=2;shadow=1;glass=0;" parent="1" vertex="1">
                    <mxGeometry x="70" y="920" width="660" height="690" as="geometry"/>
                </mxCell>
                <mxCell id="280" value="&lt;div style=&quot;background-color:#222222;color:#f7f1ff&quot;&gt;&lt;pre style=&quot;font-size: 9.8pt;&quot;&gt;&lt;br&gt;&lt;/pre&gt;&lt;/div&gt;" style="rounded=1;whiteSpace=wrap;html=1;fillColor=#CCE5FF;arcSize=11;strokeColor=#3399FF;strokeWidth=2;shadow=1;glass=0;" parent="1" vertex="1">
                    <mxGeometry x="55" y="930" width="660" height="690" as="geometry"/>
                </mxCell>
                <mxCell id="278" value="" style="endArrow=none;html=1;rounded=0;dashed=1;strokeColor=#3399FF;fontFamily=Lato;fontSource=https%3A%2F%2Ffonts.googleapis.com%2Fcss%3Ffamily%3DLato;fontColor=#4D4D4D;" parent="1" edge="1">
                    <mxGeometry width="50" height="50" relative="1" as="geometry">
                        <mxPoint x="60" y="140" as="sourcePoint"/>
                        <mxPoint x="680" y="140" as="targetPoint"/>
                    </mxGeometry>
                </mxCell>
                <mxCell id="271" value="" style="rounded=1;whiteSpace=wrap;html=1;fillColor=#CCE5FF;arcSize=6;strokeColor=#3399FF;strokeWidth=2;shadow=1;glass=0;direction=east;flipH=0;flipV=1;" parent="1" vertex="1">
                    <mxGeometry x="145" y="150" width="660" height="510.83" as="geometry"/>
                </mxCell>
                <mxCell id="267" value="" style="rounded=1;whiteSpace=wrap;html=1;fillColor=#CCE5FF;arcSize=6;strokeColor=#3399FF;strokeWidth=2;shadow=1;glass=0;direction=east;flipH=0;flipV=1;" parent="1" vertex="1">
                    <mxGeometry x="130" y="160" width="660" height="510.83" as="geometry"/>
                </mxCell>
                <mxCell id="268" value="" style="rounded=1;whiteSpace=wrap;html=1;fillColor=#CCE5FF;arcSize=6;strokeColor=#3399FF;strokeWidth=2;shadow=1;glass=0;direction=east;flipH=0;flipV=1;" parent="1" vertex="1">
                    <mxGeometry x="115" y="170" width="660" height="510.83" as="geometry"/>
                </mxCell>
                <mxCell id="269" value="" style="rounded=1;whiteSpace=wrap;html=1;fillColor=#CCE5FF;arcSize=6;strokeColor=#3399FF;strokeWidth=2;shadow=1;glass=0;direction=east;flipH=0;flipV=1;" parent="1" vertex="1">
                    <mxGeometry x="100" y="180" width="660" height="510.83" as="geometry"/>
                </mxCell>
                <mxCell id="270" value="" style="rounded=1;whiteSpace=wrap;html=1;fillColor=#CCE5FF;arcSize=6;strokeColor=#3399FF;strokeWidth=2;shadow=1;glass=0;direction=east;flipH=0;flipV=1;" parent="1" vertex="1">
                    <mxGeometry x="85" y="190" width="660" height="510.83" as="geometry"/>
                </mxCell>
                <mxCell id="266" value="" style="rounded=1;whiteSpace=wrap;html=1;fillColor=#CCE5FF;arcSize=6;strokeColor=#3399FF;strokeWidth=2;shadow=1;glass=0;" parent="1" vertex="1">
                    <mxGeometry x="70" y="200" width="660" height="510.83" as="geometry"/>
                </mxCell>
                <mxCell id="113" value="" style="rounded=1;whiteSpace=wrap;html=1;fillColor=#CCE5FF;arcSize=6;strokeColor=#3399FF;strokeWidth=2;shadow=1;glass=0;" parent="1" vertex="1">
                    <mxGeometry x="55" y="210" width="660" height="510.83" as="geometry"/>
                </mxCell>
                <mxCell id="109" value="" style="rounded=1;whiteSpace=wrap;html=1;fillColor=#CCE5FF;arcSize=7;strokeColor=#3399FF;strokeWidth=2;shadow=1;glass=0;" parent="1" vertex="1">
                    <mxGeometry x="40" y="220" width="660" height="510.83" as="geometry"/>
                </mxCell>
                <mxCell id="14" style="edgeStyle=none;html=1;entryX=0.719;entryY=-0.023;entryDx=0;entryDy=0;fontFamily=Calibri;fontColor=#FFFFFF;rounded=0;strokeColor=#3399FF;entryPerimeter=0;endArrow=blockThin;endFill=1;" parent="1" target="17" edge="1">
                    <mxGeometry relative="1" as="geometry">
                        <mxPoint x="400" y="290" as="targetPoint"/>
                        <mxPoint x="401" y="270" as="sourcePoint"/>
                    </mxGeometry>
                </mxCell>
                <mxCell id="13" value="&lt;font data-font-src=&quot;https://fonts.googleapis.com/css?family=Lato&quot; face=&quot;Lato&quot;&gt;FIFO&lt;br&gt;&lt;font style=&quot;font-size: 10px;&quot;&gt;16bit&lt;/font&gt;&lt;/font&gt;" style="shape=cube;whiteSpace=wrap;html=1;boundedLbl=1;backgroundOutline=1;darkOpacity=0.05;darkOpacity2=0.1;labelBackgroundColor=none;labelBorderColor=none;strokeColor=#FFFFFF;fontFamily=Calibri;fontColor=#FFFFFF;fillColor=#FF8000;direction=east;size=10;flipV=0;flipH=1;" parent="1" vertex="1">
                    <mxGeometry x="310" y="235" width="120" height="40" as="geometry"/>
                </mxCell>
                <mxCell id="56" style="edgeStyle=orthogonalEdgeStyle;rounded=0;html=1;strokeColor=#3399FF;fontFamily=Lato;fontSource=https%3A%2F%2Ffonts.googleapis.com%2Fcss%3Ffamily%3DLato;fontColor=#4D4D4D;startArrow=none;startFill=0;endArrow=blockThin;endFill=1;" parent="1" source="15" target="55" edge="1">
                    <mxGeometry relative="1" as="geometry">
                        <Array as="points">
                            <mxPoint x="160" y="410"/>
                            <mxPoint x="160" y="410"/>
                        </Array>
                    </mxGeometry>
                </mxCell>
                <mxCell id="15" value="&lt;font data-font-src=&quot;https://fonts.googleapis.com/css?family=Lato&quot; face=&quot;Lato&quot;&gt;H1 Hazard Detect&lt;/font&gt;" style="rounded=0;whiteSpace=wrap;html=1;labelBackgroundColor=none;labelBorderColor=none;strokeColor=#FFFFFF;fontFamily=Calibri;fontColor=#FFFFFF;fillColor=#3399FF;" parent="1" vertex="1">
                    <mxGeometry x="140" y="320" width="90" height="40" as="geometry"/>
                </mxCell>
                <mxCell id="16" value="&lt;font data-font-src=&quot;https://fonts.googleapis.com/css?family=Lato&quot; face=&quot;Lato&quot;&gt;Updated Reg P1&lt;/font&gt;" style="shape=cube;whiteSpace=wrap;html=1;boundedLbl=1;backgroundOutline=1;darkOpacity=0.05;darkOpacity2=0.1;labelBackgroundColor=none;labelBorderColor=none;strokeColor=#FFFFFF;fontFamily=Calibri;fontColor=#FFFFFF;fillColor=#FF8000;direction=east;size=10;flipV=0;flipH=1;" parent="1" vertex="1">
                    <mxGeometry x="510" y="310" width="110" height="40" as="geometry"/>
                </mxCell>
                <mxCell id="26" style="edgeStyle=orthogonalEdgeStyle;rounded=0;html=1;entryX=1;entryY=0.5;entryDx=0;entryDy=0;entryPerimeter=0;strokeColor=#3399FF;fontFamily=Lato;fontSource=https%3A%2F%2Ffonts.googleapis.com%2Fcss%3Ffamily%3DLato;fontColor=#000000;endArrow=blockThin;endFill=1;startArrow=blockThin;startFill=1;" parent="1" source="17" target="16" edge="1">
                    <mxGeometry relative="1" as="geometry"/>
                </mxCell>
                <mxCell id="27" style="edgeStyle=orthogonalEdgeStyle;rounded=0;html=1;entryX=0;entryY=0;entryDx=110;entryDy=25;entryPerimeter=0;strokeColor=#3399FF;fontFamily=Lato;fontSource=https%3A%2F%2Ffonts.googleapis.com%2Fcss%3Ffamily%3DLato;fontColor=#000000;startArrow=blockThin;startFill=1;endArrow=blockThin;endFill=1;" parent="1" source="17" target="20" edge="1">
                    <mxGeometry relative="1" as="geometry"/>
                </mxCell>
                <mxCell id="17" value="&lt;span style=&quot;font-family: Helvetica;&quot;&gt;Read updated edge&lt;/span&gt;&lt;br style=&quot;border-color: var(--border-color); font-family: Helvetica;&quot;&gt;&lt;span style=&quot;font-family: Helvetica;&quot;&gt;Read vertex value&lt;/span&gt;" style="rounded=0;whiteSpace=wrap;html=1;labelBackgroundColor=none;labelBorderColor=none;strokeColor=#FFFFFF;fontFamily=Lato;fontSource=https%3A%2F%2Ffonts.googleapis.com%2Fcss%3Ffamily%3DLato;fontColor=#FFFFFF;fillColor=#3399FF;" parent="1" vertex="1">
                    <mxGeometry x="250" y="320" width="210" height="40" as="geometry"/>
                </mxCell>
                <mxCell id="20" value="&lt;font data-font-src=&quot;https://fonts.googleapis.com/css?family=Lato&quot; face=&quot;Lato&quot;&gt;Vertex Reg P1A&lt;/font&gt;" style="shape=cube;whiteSpace=wrap;html=1;boundedLbl=1;backgroundOutline=1;darkOpacity=0.05;darkOpacity2=0.1;labelBackgroundColor=none;labelBorderColor=none;strokeColor=#FFFFFF;fontFamily=Calibri;fontColor=#FFFFFF;fillColor=#FF8000;direction=east;size=10;flipV=0;flipH=1;" parent="1" vertex="1">
                    <mxGeometry x="510" y="360" width="150" height="40" as="geometry"/>
                </mxCell>
                <mxCell id="22" value="&lt;font color=&quot;#4d4d4d&quot;&gt;Edge addr&lt;/font&gt;" style="text;html=1;strokeColor=none;fillColor=none;align=center;verticalAlign=middle;whiteSpace=wrap;rounded=0;labelBackgroundColor=none;labelBorderColor=none;fontFamily=Lato;fontSource=https%3A%2F%2Ffonts.googleapis.com%2Fcss%3Ffamily%3DLato;fontColor=#FFFFFF;" parent="1" vertex="1">
                    <mxGeometry x="240" y="265" width="60" height="30" as="geometry"/>
                </mxCell>
                <mxCell id="24" value="" style="endArrow=blockThin;html=1;rounded=0;strokeColor=#3399FF;fontFamily=Lato;fontSource=https%3A%2F%2Ffonts.googleapis.com%2Fcss%3Ffamily%3DLato;fontColor=#000000;entryX=0.5;entryY=0;entryDx=0;entryDy=0;exitX=0.865;exitY=1.018;exitDx=0;exitDy=0;exitPerimeter=0;edgeStyle=orthogonalEdgeStyle;endFill=1;" parent="1" source="13" target="15" edge="1">
                    <mxGeometry width="50" height="50" relative="1" as="geometry">
                        <mxPoint x="380" y="280" as="sourcePoint"/>
                        <mxPoint x="390" y="300" as="targetPoint"/>
                    </mxGeometry>
                </mxCell>
                <mxCell id="25" value="&lt;font color=&quot;#4d4d4d&quot;&gt;Edge addr&lt;br&gt;vertex addr&lt;br&gt;Edge value&lt;/font&gt;" style="text;html=1;strokeColor=none;fillColor=none;align=center;verticalAlign=middle;whiteSpace=wrap;rounded=0;labelBackgroundColor=none;labelBorderColor=none;fontFamily=Lato;fontSource=https%3A%2F%2Ffonts.googleapis.com%2Fcss%3Ffamily%3DLato;fontColor=#FFFFFF;" parent="1" vertex="1">
                    <mxGeometry x="410" y="265" width="90" height="50" as="geometry"/>
                </mxCell>
                <mxCell id="28" value="&lt;font color=&quot;#4d4d4d&quot;&gt;Stage H1&lt;/font&gt;" style="text;html=1;strokeColor=none;fillColor=none;align=center;verticalAlign=middle;whiteSpace=wrap;rounded=0;labelBackgroundColor=none;labelBorderColor=none;fontFamily=Lato;fontSource=https%3A%2F%2Ffonts.googleapis.com%2Fcss%3Ffamily%3DLato;fontColor=#FFFFFF;" parent="1" vertex="1">
                    <mxGeometry x="60" y="315" width="60" height="30" as="geometry"/>
                </mxCell>
                <mxCell id="30" value="" style="endArrow=none;html=1;rounded=0;dashed=1;strokeColor=#3399FF;fontFamily=Lato;fontSource=https%3A%2F%2Ffonts.googleapis.com%2Fcss%3Ffamily%3DLato;fontColor=#4D4D4D;" parent="1" edge="1">
                    <mxGeometry width="50" height="50" relative="1" as="geometry">
                        <mxPoint x="510" y="295" as="sourcePoint"/>
                        <mxPoint x="680" y="295" as="targetPoint"/>
                    </mxGeometry>
                </mxCell>
                <mxCell id="31" value="" style="endArrow=none;html=1;rounded=0;dashed=1;strokeColor=#3399FF;fontFamily=Lato;fontSource=https%3A%2F%2Ffonts.googleapis.com%2Fcss%3Ffamily%3DLato;fontColor=#4D4D4D;" parent="1" edge="1">
                    <mxGeometry width="50" height="50" relative="1" as="geometry">
                        <mxPoint x="60" y="295" as="sourcePoint"/>
                        <mxPoint x="150" y="295" as="targetPoint"/>
                    </mxGeometry>
                </mxCell>
                <mxCell id="32" value="" style="endArrow=none;html=1;rounded=0;dashed=1;strokeColor=#3399FF;fontFamily=Lato;fontSource=https%3A%2F%2Ffonts.googleapis.com%2Fcss%3Ffamily%3DLato;fontColor=#4D4D4D;" parent="1" edge="1">
                    <mxGeometry width="50" height="50" relative="1" as="geometry">
                        <mxPoint x="60" y="580" as="sourcePoint"/>
                        <mxPoint x="680" y="580" as="targetPoint"/>
                    </mxGeometry>
                </mxCell>
                <mxCell id="33" value="&lt;font color=&quot;#4d4d4d&quot;&gt;Stage H2&lt;/font&gt;" style="text;html=1;strokeColor=none;fillColor=none;align=center;verticalAlign=middle;whiteSpace=wrap;rounded=0;labelBackgroundColor=none;labelBorderColor=none;fontFamily=Lato;fontSource=https%3A%2F%2Ffonts.googleapis.com%2Fcss%3Ffamily%3DLato;fontColor=#FFFFFF;" parent="1" vertex="1">
                    <mxGeometry x="60" y="430" width="60" height="30" as="geometry"/>
                </mxCell>
                <mxCell id="37" value="" style="edgeStyle=orthogonalEdgeStyle;rounded=0;html=1;strokeColor=#3399FF;fontFamily=Lato;fontSource=https%3A%2F%2Ffonts.googleapis.com%2Fcss%3Ffamily%3DLato;fontColor=#4D4D4D;startArrow=none;startFill=0;endArrow=blockThin;endFill=1;" parent="1" source="35" target="15" edge="1">
                    <mxGeometry relative="1" as="geometry">
                        <Array as="points">
                            <mxPoint x="270" y="420"/>
                            <mxPoint x="200" y="420"/>
                        </Array>
                    </mxGeometry>
                </mxCell>
                <mxCell id="82" style="edgeStyle=orthogonalEdgeStyle;rounded=0;html=1;strokeColor=#3399FF;fontFamily=Lato;fontSource=https%3A%2F%2Ffonts.googleapis.com%2Fcss%3Ffamily%3DLato;fontColor=#4D4D4D;startArrow=none;startFill=0;endArrow=blockThin;endFill=1;" parent="1" source="35" target="81" edge="1">
                    <mxGeometry relative="1" as="geometry"/>
                </mxCell>
                <mxCell id="35" value="&lt;span style=&quot;font-family: Helvetica;&quot;&gt;Updated Edge Addr Reg h2&lt;/span&gt;" style="rounded=0;whiteSpace=wrap;html=1;labelBackgroundColor=none;labelBorderColor=none;strokeColor=#FFFFFF;fontFamily=Lato;fontSource=https%3A%2F%2Ffonts.googleapis.com%2Fcss%3Ffamily%3DLato;fontColor=#FFFFFF;fillColor=#3399FF;" parent="1" vertex="1">
                    <mxGeometry x="250" y="430" width="110" height="40" as="geometry"/>
                </mxCell>
                <mxCell id="40" style="edgeStyle=orthogonalEdgeStyle;rounded=0;html=1;entryX=0.5;entryY=0;entryDx=0;entryDy=0;strokeColor=#3399FF;fontFamily=Lato;fontSource=https%3A%2F%2Ffonts.googleapis.com%2Fcss%3Ffamily%3DLato;fontColor=#4D4D4D;startArrow=none;startFill=0;endArrow=blockThin;endFill=1;" parent="1" source="39" target="35" edge="1">
                    <mxGeometry relative="1" as="geometry"/>
                </mxCell>
                <mxCell id="39" value="&lt;font face=&quot;Helvetica&quot;&gt;Addr Reg Group&lt;/font&gt;" style="rounded=0;whiteSpace=wrap;html=1;labelBackgroundColor=none;labelBorderColor=none;strokeColor=#FFFFFF;fontFamily=Lato;fontSource=https%3A%2F%2Ffonts.googleapis.com%2Fcss%3Ffamily%3DLato;fontColor=#FFFFFF;fillColor=#3399FF;" parent="1" vertex="1">
                    <mxGeometry x="250" y="360" width="110" height="40" as="geometry"/>
                </mxCell>
                <mxCell id="74" style="edgeStyle=orthogonalEdgeStyle;rounded=0;html=1;strokeColor=#3399FF;fontFamily=Lato;fontSource=https%3A%2F%2Ffonts.googleapis.com%2Fcss%3Ffamily%3DLato;fontColor=#4D4D4D;startArrow=none;startFill=0;endArrow=blockThin;endFill=1;" parent="1" source="42" target="51" edge="1">
                    <mxGeometry relative="1" as="geometry">
                        <Array as="points">
                            <mxPoint x="408" y="400"/>
                            <mxPoint x="408" y="400"/>
                        </Array>
                    </mxGeometry>
                </mxCell>
                <mxCell id="42" value="&lt;font face=&quot;Helvetica&quot;&gt;Value Reg Group&lt;/font&gt;" style="rounded=0;whiteSpace=wrap;html=1;labelBackgroundColor=none;labelBorderColor=none;strokeColor=#FFFFFF;fontFamily=Lato;fontSource=https%3A%2F%2Ffonts.googleapis.com%2Fcss%3Ffamily%3DLato;fontColor=#FFFFFF;fillColor=#3399FF;" parent="1" vertex="1">
                    <mxGeometry x="355" y="360" width="105" height="40" as="geometry"/>
                </mxCell>
                <mxCell id="43" value="&amp;nbsp; &amp;nbsp; Mux" style="shadow=0;dashed=0;align=center;html=1;strokeWidth=1;shape=mxgraph.electrical.abstract.mux2;labelBackgroundColor=none;labelBorderColor=none;strokeColor=#3399FF;fontFamily=Lato;fontSource=https%3A%2F%2Ffonts.googleapis.com%2Fcss%3Ffamily%3DLato;fontColor=#4D4D4D;fillColor=#CCE5FF;direction=south;" parent="1" vertex="1">
                    <mxGeometry x="535" y="510" width="80" height="40" as="geometry"/>
                </mxCell>
                <mxCell id="67" style="edgeStyle=orthogonalEdgeStyle;rounded=1;html=1;entryX=0;entryY=0.5;entryDx=0;entryDy=0;entryPerimeter=0;strokeColor=#3399FF;fontFamily=Lato;fontSource=https%3A%2F%2Ffonts.googleapis.com%2Fcss%3Ffamily%3DLato;fontColor=#4D4D4D;startArrow=none;startFill=0;endArrow=none;endFill=0;" parent="1" source="49" target="66" edge="1">
                    <mxGeometry relative="1" as="geometry">
                        <Array as="points">
                            <mxPoint x="460" y="555"/>
                        </Array>
                    </mxGeometry>
                </mxCell>
                <mxCell id="49" value="" style="verticalLabelPosition=bottom;shadow=0;dashed=0;align=center;html=1;verticalAlign=top;shape=mxgraph.electrical.abstract.multiplier;labelBackgroundColor=none;labelBorderColor=none;strokeColor=#3399FF;fontFamily=Lato;fontSource=https%3A%2F%2Ffonts.googleapis.com%2Fcss%3Ffamily%3DLato;fontColor=#4D4D4D;fillColor=#CCE5FF;" parent="1" vertex="1">
                    <mxGeometry x="445" y="490" width="30" height="30" as="geometry"/>
                </mxCell>
                <mxCell id="59" style="edgeStyle=orthogonalEdgeStyle;rounded=0;html=1;entryX=0.25;entryY=1;entryDx=10;entryDy=0;entryPerimeter=0;strokeColor=#3399FF;fontFamily=Lato;fontSource=https%3A%2F%2Ffonts.googleapis.com%2Fcss%3Ffamily%3DLato;fontColor=#4D4D4D;startArrow=none;startFill=0;endArrow=none;endFill=0;dashed=1;" parent="1" source="55" target="43" edge="1">
                    <mxGeometry relative="1" as="geometry">
                        <Array as="points">
                            <mxPoint x="190" y="530"/>
                        </Array>
                    </mxGeometry>
                </mxCell>
                <mxCell id="55" value="&lt;font data-font-src=&quot;https://fonts.googleapis.com/css?family=Lato&quot; face=&quot;Lato&quot;&gt;H2 Hazard Detect&lt;/font&gt;" style="rounded=0;whiteSpace=wrap;html=1;labelBackgroundColor=none;labelBorderColor=none;strokeColor=#FFFFFF;fontFamily=Calibri;fontColor=#FFFFFF;fillColor=#3399FF;" parent="1" vertex="1">
                    <mxGeometry x="140" y="430" width="90" height="40" as="geometry"/>
                </mxCell>
                <mxCell id="64" style="edgeStyle=orthogonalEdgeStyle;rounded=1;html=1;entryX=0;entryY=0.5;entryDx=0;entryDy=0;entryPerimeter=0;strokeColor=#3399FF;fontFamily=Lato;fontSource=https%3A%2F%2Ffonts.googleapis.com%2Fcss%3Ffamily%3DLato;fontColor=#4D4D4D;startArrow=none;startFill=0;endArrow=none;endFill=0;" parent="1" source="51" target="49" edge="1">
                    <mxGeometry relative="1" as="geometry">
                        <Array as="points">
                            <mxPoint x="410" y="505"/>
                        </Array>
                    </mxGeometry>
                </mxCell>
                <mxCell id="51" value="&lt;font face=&quot;Helvetica&quot;&gt;Vertex Value&lt;/font&gt;" style="rounded=0;whiteSpace=wrap;html=1;labelBackgroundColor=none;labelBorderColor=none;strokeColor=#FFFFFF;fontFamily=Lato;fontSource=https%3A%2F%2Ffonts.googleapis.com%2Fcss%3Ffamily%3DLato;fontColor=#FFFFFF;fillColor=#3399FF;" parent="1" vertex="1">
                    <mxGeometry x="370" y="430" width="90" height="40" as="geometry"/>
                </mxCell>
                <mxCell id="69" style="edgeStyle=orthogonalEdgeStyle;rounded=1;html=1;entryX=1;entryY=0.5;entryDx=0;entryDy=0;entryPerimeter=0;strokeColor=#3399FF;fontFamily=Lato;fontSource=https%3A%2F%2Ffonts.googleapis.com%2Fcss%3Ffamily%3DLato;fontColor=#4D4D4D;startArrow=none;startFill=0;endArrow=none;endFill=0;" parent="1" source="52" target="49" edge="1">
                    <mxGeometry relative="1" as="geometry"/>
                </mxCell>
                <mxCell id="52" value="&lt;font face=&quot;Helvetica&quot;&gt;New Edge Value&lt;/font&gt;" style="rounded=0;whiteSpace=wrap;html=1;labelBackgroundColor=none;labelBorderColor=none;strokeColor=#FFFFFF;fontFamily=Lato;fontSource=https%3A%2F%2Ffonts.googleapis.com%2Fcss%3Ffamily%3DLato;fontColor=#FFFFFF;fillColor=#3399FF;" parent="1" vertex="1">
                    <mxGeometry x="460" y="430" width="90" height="40" as="geometry"/>
                </mxCell>
                <mxCell id="71" style="edgeStyle=orthogonalEdgeStyle;rounded=0;html=1;entryX=0;entryY=0.6000000000000001;entryDx=0;entryDy=3;entryPerimeter=0;strokeColor=#3399FF;fontFamily=Lato;fontSource=https%3A%2F%2Ffonts.googleapis.com%2Fcss%3Ffamily%3DLato;fontColor=#4D4D4D;startArrow=none;startFill=0;endArrow=none;endFill=0;" parent="1" source="62" target="43" edge="1">
                    <mxGeometry relative="1" as="geometry">
                        <Array as="points">
                            <mxPoint x="564" y="480"/>
                            <mxPoint x="564" y="480"/>
                        </Array>
                    </mxGeometry>
                </mxCell>
                <mxCell id="62" value="&lt;font face=&quot;Helvetica&quot;&gt;Updated Value&lt;/font&gt;" style="rounded=0;whiteSpace=wrap;html=1;labelBackgroundColor=none;labelBorderColor=none;strokeColor=#FFFFFF;fontFamily=Lato;fontSource=https%3A%2F%2Ffonts.googleapis.com%2Fcss%3Ffamily%3DLato;fontColor=#FFFFFF;fillColor=#3399FF;" parent="1" vertex="1">
                    <mxGeometry x="550" y="430" width="90" height="40" as="geometry"/>
                </mxCell>
                <mxCell id="73" style="edgeStyle=orthogonalEdgeStyle;rounded=0;html=1;strokeColor=#3399FF;fontFamily=Lato;fontSource=https%3A%2F%2Ffonts.googleapis.com%2Fcss%3Ffamily%3DLato;fontColor=#4D4D4D;startArrow=none;startFill=0;endArrow=none;endFill=0;" parent="1" source="66" edge="1">
                    <mxGeometry relative="1" as="geometry">
                        <mxPoint x="580" y="550" as="targetPoint"/>
                        <Array as="points">
                            <mxPoint x="580" y="555"/>
                        </Array>
                    </mxGeometry>
                </mxCell>
                <mxCell id="90" style="edgeStyle=orthogonalEdgeStyle;rounded=0;html=1;entryX=0.409;entryY=0;entryDx=0;entryDy=0;entryPerimeter=0;strokeColor=#3399FF;fontFamily=Lato;fontSource=https%3A%2F%2Ffonts.googleapis.com%2Fcss%3Ffamily%3DLato;fontColor=#4D4D4D;startArrow=none;startFill=0;endArrow=blockThin;endFill=1;" parent="1" source="66" target="85" edge="1">
                    <mxGeometry relative="1" as="geometry"/>
                </mxCell>
                <mxCell id="66" value="" style="verticalLabelPosition=bottom;shadow=0;dashed=0;align=center;html=1;verticalAlign=top;shape=mxgraph.electrical.abstract.summation_point;labelBackgroundColor=none;labelBorderColor=none;strokeColor=#3399FF;fontFamily=Lato;fontSource=https%3A%2F%2Ffonts.googleapis.com%2Fcss%3Ffamily%3DLato;fontColor=#4D4D4D;fillColor=#CCE5FF;" parent="1" vertex="1">
                    <mxGeometry x="510" y="540" width="30" height="30" as="geometry"/>
                </mxCell>
                <mxCell id="75" value="" style="endArrow=none;html=1;rounded=0;dashed=1;strokeColor=#3399FF;fontFamily=Lato;fontSource=https%3A%2F%2Ffonts.googleapis.com%2Fcss%3Ffamily%3DLato;fontColor=#4D4D4D;" parent="1" edge="1">
                    <mxGeometry width="50" height="50" relative="1" as="geometry">
                        <mxPoint x="60" y="410" as="sourcePoint"/>
                        <mxPoint x="680" y="410" as="targetPoint"/>
                    </mxGeometry>
                </mxCell>
                <mxCell id="76" value="&lt;font data-font-src=&quot;https://fonts.googleapis.com/css?family=Lato&quot; face=&quot;Lato&quot;&gt;Updated Reg P1&lt;/font&gt;" style="shape=cube;whiteSpace=wrap;html=1;boundedLbl=1;backgroundOutline=1;darkOpacity=0.05;darkOpacity2=0.1;labelBackgroundColor=none;labelBorderColor=none;strokeColor=#FFFFFF;fontFamily=Calibri;fontColor=#FFFFFF;fillColor=#FF8000;direction=east;size=10;flipV=0;flipH=1;" parent="1" vertex="1">
                    <mxGeometry x="365" y="675" width="110" height="40" as="geometry"/>
                </mxCell>
                <mxCell id="78" value="&lt;font color=&quot;#4d4d4d&quot;&gt;Stage H3&lt;/font&gt;" style="text;html=1;strokeColor=none;fillColor=none;align=center;verticalAlign=middle;whiteSpace=wrap;rounded=0;labelBackgroundColor=none;labelBorderColor=none;fontFamily=Lato;fontSource=https%3A%2F%2Ffonts.googleapis.com%2Fcss%3Ffamily%3DLato;fontColor=#FFFFFF;" parent="1" vertex="1">
                    <mxGeometry x="60" y="590" width="60" height="30" as="geometry"/>
                </mxCell>
                <mxCell id="79" value="&lt;font color=&quot;#4d4d4d&quot;&gt;DSP&lt;/font&gt;" style="text;html=1;strokeColor=none;fillColor=none;align=center;verticalAlign=middle;whiteSpace=wrap;rounded=0;labelBackgroundColor=none;labelBorderColor=none;fontFamily=Lato;fontSource=https%3A%2F%2Ffonts.googleapis.com%2Fcss%3Ffamily%3DLato;fontColor=#FFFFFF;" parent="1" vertex="1">
                    <mxGeometry x="375" y="495" width="30" height="20" as="geometry"/>
                </mxCell>
                <mxCell id="80" value="&lt;font color=&quot;#4d4d4d&quot;&gt;write back data&lt;/font&gt;" style="text;html=1;strokeColor=none;fillColor=none;align=center;verticalAlign=middle;whiteSpace=wrap;rounded=0;labelBackgroundColor=none;labelBorderColor=none;fontFamily=Lato;fontSource=https%3A%2F%2Ffonts.googleapis.com%2Fcss%3Ffamily%3DLato;fontColor=#FFFFFF;" parent="1" vertex="1">
                    <mxGeometry x="420" y="590" width="100" height="30" as="geometry"/>
                </mxCell>
                <mxCell id="91" style="edgeStyle=orthogonalEdgeStyle;rounded=0;html=1;strokeColor=#3399FF;fontFamily=Lato;fontSource=https%3A%2F%2Ffonts.googleapis.com%2Fcss%3Ffamily%3DLato;fontColor=#4D4D4D;startArrow=none;startFill=0;endArrow=blockThin;endFill=1;" parent="1" source="81" target="76" edge="1">
                    <mxGeometry relative="1" as="geometry">
                        <Array as="points">
                            <mxPoint x="410" y="640"/>
                        </Array>
                    </mxGeometry>
                </mxCell>
                <mxCell id="81" value="&lt;span style=&quot;font-family: Helvetica;&quot;&gt;Updated Edge Addr Reg h2&lt;/span&gt;" style="rounded=0;whiteSpace=wrap;html=1;labelBackgroundColor=none;labelBorderColor=none;strokeColor=#FFFFFF;fontFamily=Lato;fontSource=https%3A%2F%2Ffonts.googleapis.com%2Fcss%3Ffamily%3DLato;fontColor=#FFFFFF;fillColor=#3399FF;" parent="1" vertex="1">
                    <mxGeometry x="250" y="620" width="110" height="40" as="geometry"/>
                </mxCell>
                <mxCell id="84" value="&lt;font color=&quot;#4d4d4d&quot;&gt;write back addr&lt;/font&gt;" style="text;html=1;strokeColor=none;fillColor=none;align=center;verticalAlign=middle;whiteSpace=wrap;rounded=0;labelBackgroundColor=none;labelBorderColor=none;fontFamily=Lato;fontSource=https%3A%2F%2Ffonts.googleapis.com%2Fcss%3Ffamily%3DLato;fontColor=#FFFFFF;" parent="1" vertex="1">
                    <mxGeometry x="200" y="590" width="100" height="30" as="geometry"/>
                </mxCell>
                <mxCell id="87" style="edgeStyle=orthogonalEdgeStyle;rounded=0;html=1;strokeColor=#3399FF;fontFamily=Lato;fontSource=https%3A%2F%2Ffonts.googleapis.com%2Fcss%3Ffamily%3DLato;fontColor=#4D4D4D;startArrow=none;startFill=0;endArrow=blockThin;endFill=1;" parent="1" source="85" target="76" edge="1">
                    <mxGeometry relative="1" as="geometry">
                        <Array as="points">
                            <mxPoint x="430" y="640"/>
                        </Array>
                    </mxGeometry>
                </mxCell>
                <mxCell id="88" style="edgeStyle=orthogonalEdgeStyle;rounded=0;html=1;entryX=0;entryY=0.2;entryDx=0;entryDy=3;entryPerimeter=0;strokeColor=#3399FF;fontFamily=Lato;fontSource=https%3A%2F%2Ffonts.googleapis.com%2Fcss%3Ffamily%3DLato;fontColor=#4D4D4D;startArrow=none;startFill=0;endArrow=none;endFill=0;" parent="1" source="85" target="43" edge="1">
                    <mxGeometry relative="1" as="geometry">
                        <Array as="points">
                            <mxPoint x="630" y="640"/>
                            <mxPoint x="630" y="490"/>
                            <mxPoint x="596" y="490"/>
                        </Array>
                    </mxGeometry>
                </mxCell>
                <mxCell id="85" value="&lt;span style=&quot;font-family: Helvetica;&quot;&gt;Updated Edge Value h3&lt;/span&gt;" style="rounded=0;whiteSpace=wrap;html=1;labelBackgroundColor=none;labelBorderColor=none;strokeColor=#FFFFFF;fontFamily=Lato;fontSource=https%3A%2F%2Ffonts.googleapis.com%2Fcss%3Ffamily%3DLato;fontColor=#FFFFFF;fillColor=#3399FF;" parent="1" vertex="1">
                    <mxGeometry x="480" y="620" width="110" height="40" as="geometry"/>
                </mxCell>
                <mxCell id="89" value="&lt;font color=&quot;#4d4d4d&quot;&gt;bypass data&lt;/font&gt;" style="text;html=1;strokeColor=none;fillColor=none;align=center;verticalAlign=middle;whiteSpace=wrap;rounded=0;labelBackgroundColor=none;labelBorderColor=none;fontFamily=Lato;fontSource=https%3A%2F%2Ffonts.googleapis.com%2Fcss%3Ffamily%3DLato;fontColor=#FFFFFF;" parent="1" vertex="1">
                    <mxGeometry x="615" y="530" width="100" height="30" as="geometry"/>
                </mxCell>
                <mxCell id="104" value="&lt;font style=&quot;font-size: 14px;&quot; color=&quot;#4d4d4d&quot;&gt;&lt;b&gt;Matrix&lt;br&gt;Multiplication&lt;/b&gt;&lt;/font&gt;" style="text;html=1;strokeColor=none;fillColor=none;align=center;verticalAlign=middle;whiteSpace=wrap;rounded=0;labelBackgroundColor=none;labelBorderColor=none;fontFamily=Lato;fontSource=https%3A%2F%2Ffonts.googleapis.com%2Fcss%3Ffamily%3DLato;fontColor=#FFFFFF;" parent="1" vertex="1">
                    <mxGeometry x="-50" y="235" width="60" height="30" as="geometry"/>
                </mxCell>
                <mxCell id="106" value="&lt;font style=&quot;font-size: 14px;&quot; color=&quot;#4d4d4d&quot;&gt;&lt;b&gt;Time&lt;br&gt;Evoluation&lt;/b&gt;&lt;br&gt;&lt;/font&gt;" style="text;html=1;strokeColor=none;fillColor=none;align=center;verticalAlign=middle;whiteSpace=wrap;rounded=0;labelBackgroundColor=none;labelBorderColor=none;fontFamily=Lato;fontSource=https%3A%2F%2Ffonts.googleapis.com%2Fcss%3Ffamily%3DLato;fontColor=#FFFFFF;" parent="1" vertex="1">
                    <mxGeometry x="-50" y="940" width="60" height="20" as="geometry"/>
                </mxCell>
                <mxCell id="107" value="" style="endArrow=none;html=1;rounded=0;dashed=1;strokeColor=#3399FF;fontFamily=Lato;fontSource=https%3A%2F%2Ffonts.googleapis.com%2Fcss%3Ffamily%3DLato;fontColor=#4D4D4D;" parent="1" edge="1">
                    <mxGeometry width="50" height="50" relative="1" as="geometry">
                        <mxPoint x="60" y="740" as="sourcePoint"/>
                        <mxPoint x="680" y="740" as="targetPoint"/>
                    </mxGeometry>
                </mxCell>
                <mxCell id="114" value="&lt;font color=&quot;#4d4d4d&quot;&gt;8 process core&lt;/font&gt;" style="text;html=1;strokeColor=none;fillColor=none;align=center;verticalAlign=middle;whiteSpace=wrap;rounded=0;labelBackgroundColor=none;labelBorderColor=none;fontFamily=Lato;fontSource=https%3A%2F%2Ffonts.googleapis.com%2Fcss%3Ffamily%3DLato;fontColor=#FFFFFF;" parent="1" vertex="1">
                    <mxGeometry x="-60" y="275" width="80" height="30" as="geometry"/>
                </mxCell>
                <mxCell id="119" value="&lt;div style=&quot;background-color:#222222;color:#f7f1ff&quot;&gt;&lt;pre style=&quot;font-size: 9.8pt;&quot;&gt;&lt;br&gt;&lt;/pre&gt;&lt;/div&gt;" style="rounded=1;whiteSpace=wrap;html=1;fillColor=#CCE5FF;arcSize=11;strokeColor=#3399FF;strokeWidth=2;shadow=1;glass=0;" parent="1" vertex="1">
                    <mxGeometry x="40" y="940" width="660" height="690" as="geometry"/>
                </mxCell>
                <mxCell id="124" value="&lt;font color=&quot;#4d4d4d&quot;&gt;&lt;span style=&quot;font-size: 14px;&quot;&gt;&lt;b&gt;Adapter&lt;/b&gt;&lt;/span&gt;&lt;/font&gt;" style="text;html=1;strokeColor=none;fillColor=none;align=center;verticalAlign=middle;whiteSpace=wrap;rounded=0;labelBackgroundColor=none;labelBorderColor=none;fontFamily=Lato;fontSource=https%3A%2F%2Ffonts.googleapis.com%2Fcss%3Ffamily%3DLato;fontColor=#FFFFFF;" parent="1" vertex="1">
                    <mxGeometry x="-50" y="-30.740000000000002" width="60" height="30" as="geometry"/>
                </mxCell>
                <mxCell id="125" value="" style="rounded=1;whiteSpace=wrap;html=1;fillColor=#CCE5FF;arcSize=14;strokeColor=#3399FF;strokeWidth=2;shadow=1;glass=0;" parent="1" vertex="1">
                    <mxGeometry x="40" y="-50.74" width="660" height="180" as="geometry"/>
                </mxCell>
                <mxCell id="252" style="edgeStyle=orthogonalEdgeStyle;rounded=0;html=1;entryX=0.5;entryY=0;entryDx=0;entryDy=0;strokeColor=#3399FF;endArrow=none;endFill=0;" parent="1" source="128" target="136" edge="1">
                    <mxGeometry relative="1" as="geometry">
                        <Array as="points">
                            <mxPoint x="320" y="29.259999999999998"/>
                        </Array>
                    </mxGeometry>
                </mxCell>
                <mxCell id="253" style="edgeStyle=orthogonalEdgeStyle;rounded=0;html=1;entryX=0.5;entryY=0;entryDx=0;entryDy=0;strokeColor=#3399FF;endArrow=none;endFill=0;" parent="1" source="128" target="136" edge="1">
                    <mxGeometry relative="1" as="geometry">
                        <Array as="points">
                            <mxPoint x="350" y="29.259999999999998"/>
                        </Array>
                    </mxGeometry>
                </mxCell>
                <mxCell id="255" style="edgeStyle=orthogonalEdgeStyle;rounded=0;html=1;entryX=0.5;entryY=0;entryDx=0;entryDy=0;strokeColor=#3399FF;endArrow=none;endFill=0;" parent="1" source="128" target="136" edge="1">
                    <mxGeometry relative="1" as="geometry">
                        <Array as="points">
                            <mxPoint x="400" y="29.259999999999998"/>
                        </Array>
                    </mxGeometry>
                </mxCell>
                <mxCell id="257" style="edgeStyle=orthogonalEdgeStyle;rounded=0;html=1;entryX=0.5;entryY=0;entryDx=0;entryDy=0;strokeColor=#3399FF;endArrow=none;endFill=0;" parent="1" source="128" target="136" edge="1">
                    <mxGeometry relative="1" as="geometry">
                        <Array as="points">
                            <mxPoint x="430" y="29.259999999999998"/>
                        </Array>
                    </mxGeometry>
                </mxCell>
                <mxCell id="128" value="&lt;font data-font-src=&quot;https://fonts.googleapis.com/css?family=Lato&quot; face=&quot;Lato&quot;&gt;FIFO &lt;br&gt;&lt;font style=&quot;font-size: 10px;&quot;&gt;512bit&lt;/font&gt;&lt;/font&gt;" style="shape=cube;whiteSpace=wrap;html=1;boundedLbl=1;backgroundOutline=1;darkOpacity=0.05;darkOpacity2=0.1;labelBackgroundColor=none;labelBorderColor=none;strokeColor=#FFFFFF;fontFamily=Calibri;fontColor=#FFFFFF;fillColor=#FF8000;direction=east;size=10;flipV=0;flipH=1;" parent="1" vertex="1">
                    <mxGeometry x="210" y="-40.74" width="330" height="40" as="geometry"/>
                </mxCell>
                <mxCell id="132" value="" style="html=1;shadow=1;align=center;verticalAlign=middle;shape=mxgraph.arrows2.arrow;dy=0.55;dx=17.68;direction=south;notch=0;glass=0;strokeColor=#3399FF;strokeWidth=2;fontSize=10;fontColor=#1A1A1A;fillColor=#E6E6E6;" parent="1" vertex="1">
                    <mxGeometry x="348.75" y="120" width="32.5" height="115" as="geometry"/>
                </mxCell>
                <mxCell id="133" value="&lt;font color=&quot;#4d4d4d&quot;&gt;&lt;span style=&quot;font-size: 14px;&quot;&gt;&lt;b&gt;512b&lt;br&gt;200Mhz&lt;br&gt;Stream&lt;br&gt;&lt;/b&gt;&lt;/span&gt;&lt;/font&gt;" style="text;html=1;strokeColor=none;fillColor=none;align=center;verticalAlign=middle;whiteSpace=wrap;rounded=0;labelBackgroundColor=none;labelBorderColor=none;fontFamily=Lato;fontSource=https%3A%2F%2Ffonts.googleapis.com%2Fcss%3Ffamily%3DLato;fontColor=#FFFFFF;" parent="1" vertex="1">
                    <mxGeometry x="411.25" y="-140.74" width="60" height="50" as="geometry"/>
                </mxCell>
                <mxCell id="258" style="edgeStyle=orthogonalEdgeStyle;rounded=0;html=1;entryX=0.482;entryY=0;entryDx=0;entryDy=0;entryPerimeter=0;strokeColor=#3399FF;endArrow=none;endFill=0;" parent="1" source="136" target="250" edge="1">
                    <mxGeometry relative="1" as="geometry"/>
                </mxCell>
                <mxCell id="136" value="&lt;font data-font-src=&quot;https://fonts.googleapis.com/css?family=Lato&quot; face=&quot;Lato&quot; style=&quot;font-size: 13px;&quot;&gt;Mux&lt;/font&gt;" style="shape=trapezoid;perimeter=trapezoidPerimeter;html=1;fixedSize=1;shadow=0;glass=0;strokeColor=#3399FF;strokeWidth=1;fontSize=10;fontColor=#1A1A1A;fillColor=none;rotation=0;size=7.5;verticalAlign=middle;whiteSpace=wrap;flipV=1;" parent="1" vertex="1">
                    <mxGeometry x="300" y="29.259999999999998" width="150" height="20" as="geometry"/>
                </mxCell>
                <mxCell id="149" value="" style="group" parent="1" vertex="1" connectable="0">
                    <mxGeometry x="210" y="19.259999999999998" width="60" height="40" as="geometry"/>
                </mxCell>
                <mxCell id="145" value="" style="rounded=1;whiteSpace=wrap;html=1;shadow=1;glass=0;strokeColor=none;strokeWidth=1;fontFamily=Lato;fontSource=https%3A%2F%2Ffonts.googleapis.com%2Fcss%3Ffamily%3DLato;fontSize=13;fontColor=#1A1A1A;fillColor=#2A7FD4;arcSize=10;" parent="149" vertex="1">
                    <mxGeometry width="60" height="40" as="geometry"/>
                </mxCell>
                <mxCell id="146" value="&lt;b&gt;&lt;font color=&quot;#2a7fd4&quot;&gt;0&lt;/font&gt;&lt;/b&gt;" style="rounded=1;whiteSpace=wrap;html=1;shadow=0;glass=0;strokeColor=none;strokeWidth=1;fontFamily=Lato;fontSource=https%3A%2F%2Ffonts.googleapis.com%2Fcss%3Ffamily%3DLato;fontSize=13;fontColor=#1A1A1A;fillColor=#FFFFFF;" parent="149" vertex="1">
                    <mxGeometry x="4.285714285714286" y="5" width="15" height="30" as="geometry"/>
                </mxCell>
                <mxCell id="147" value="&lt;b&gt;&lt;font color=&quot;#2a7fd4&quot;&gt;1&lt;/font&gt;&lt;/b&gt;" style="rounded=1;whiteSpace=wrap;html=1;shadow=0;glass=0;strokeColor=none;strokeWidth=1;fontFamily=Lato;fontSource=https%3A%2F%2Ffonts.googleapis.com%2Fcss%3Ffamily%3DLato;fontSize=13;fontColor=#1A1A1A;fillColor=#B8D1EA;" parent="149" vertex="1">
                    <mxGeometry x="21.42857142857143" y="5" width="15" height="30" as="geometry"/>
                </mxCell>
                <mxCell id="148" value="&lt;b&gt;&lt;font color=&quot;#ffffff&quot;&gt;1&lt;/font&gt;&lt;/b&gt;" style="rounded=1;whiteSpace=wrap;html=1;shadow=0;glass=0;strokeColor=none;strokeWidth=1;fontFamily=Lato;fontSource=https%3A%2F%2Ffonts.googleapis.com%2Fcss%3Ffamily%3DLato;fontSize=13;fontColor=#1A1A1A;fillColor=#99CCFF;" parent="149" vertex="1">
                    <mxGeometry x="38.57142857142857" y="5" width="15" height="30" as="geometry"/>
                </mxCell>
                <mxCell id="150" value="&lt;font color=&quot;#4d4d4d&quot;&gt;Counter&lt;br&gt;0 - 3&lt;br&gt;&lt;/font&gt;" style="text;html=1;strokeColor=none;fillColor=none;align=center;verticalAlign=middle;whiteSpace=wrap;rounded=0;labelBackgroundColor=none;labelBorderColor=none;fontFamily=Lato;fontSource=https%3A%2F%2Ffonts.googleapis.com%2Fcss%3Ffamily%3DLato;fontColor=#FFFFFF;" parent="1" vertex="1">
                    <mxGeometry x="147.32" y="49.26" width="60" height="30" as="geometry"/>
                </mxCell>
                <mxCell id="152" value="" style="edgeStyle=orthogonalEdgeStyle;rounded=0;html=1;strokeColor=#3399FF;fontFamily=Lato;fontSource=https%3A%2F%2Ffonts.googleapis.com%2Fcss%3Ffamily%3DLato;fontColor=#4D4D4D;startArrow=none;startFill=0;endArrow=none;endFill=0;exitX=0;exitY=0.5;exitDx=0;exitDy=0;entryX=1;entryY=0.25;entryDx=0;entryDy=0;dashed=1;" parent="1" source="136" target="145" edge="1">
                    <mxGeometry relative="1" as="geometry">
                        <Array as="points">
                            <mxPoint x="270" y="39.26"/>
                        </Array>
                        <mxPoint x="317.5" y="129.26" as="sourcePoint"/>
                        <mxPoint x="270" y="79.25999999999999" as="targetPoint"/>
                    </mxGeometry>
                </mxCell>
                <mxCell id="204" style="edgeStyle=orthogonalEdgeStyle;rounded=0;html=1;entryX=0.5;entryY=0;entryDx=0;entryDy=0;strokeColor=#3399FF;strokeWidth=2;fontFamily=Lato;fontSource=https%3A%2F%2Ffonts.googleapis.com%2Fcss%3Ffamily%3DLato;fontSize=13;fontColor=#B3FF66;startArrow=none;startFill=0;endArrow=none;endFill=0;" parent="1" source="159" target="184" edge="1">
                    <mxGeometry relative="1" as="geometry">
                        <Array as="points">
                            <mxPoint x="340" y="1055"/>
                            <mxPoint x="282" y="1055"/>
                        </Array>
                    </mxGeometry>
                </mxCell>
                <mxCell id="205" style="edgeStyle=orthogonalEdgeStyle;rounded=0;html=1;strokeColor=#3399FF;strokeWidth=2;fontFamily=Lato;fontSource=https%3A%2F%2Ffonts.googleapis.com%2Fcss%3Ffamily%3DLato;fontSize=13;fontColor=#B3FF66;startArrow=none;startFill=0;endArrow=none;endFill=0;" parent="1" source="159" target="177" edge="1">
                    <mxGeometry relative="1" as="geometry">
                        <Array as="points">
                            <mxPoint x="340" y="1060"/>
                            <mxPoint x="340" y="1060"/>
                        </Array>
                    </mxGeometry>
                </mxCell>
                <mxCell id="159" value="&lt;font data-font-src=&quot;https://fonts.googleapis.com/css?family=Lato&quot; face=&quot;Lato&quot;&gt;Vertex Reg P1A&lt;/font&gt;" style="shape=cube;whiteSpace=wrap;html=1;boundedLbl=1;backgroundOutline=1;darkOpacity=0.05;darkOpacity2=0.1;labelBackgroundColor=none;labelBorderColor=none;strokeColor=#FFFFFF;fontFamily=Calibri;fontColor=#FFFFFF;fillColor=#FF8000;direction=east;size=10;flipV=0;flipH=1;" parent="1" vertex="1">
                    <mxGeometry x="286.25" y="995" width="110" height="45" as="geometry"/>
                </mxCell>
                <mxCell id="206" style="edgeStyle=orthogonalEdgeStyle;rounded=0;html=1;strokeColor=#3399FF;strokeWidth=2;fontFamily=Lato;fontSource=https%3A%2F%2Ffonts.googleapis.com%2Fcss%3Ffamily%3DLato;fontSize=13;fontColor=#B3FF66;startArrow=none;startFill=0;endArrow=none;endFill=0;" parent="1" source="157" target="198" edge="1">
                    <mxGeometry relative="1" as="geometry"/>
                </mxCell>
                <mxCell id="157" value="Updated Reg S1" style="shape=cube;whiteSpace=wrap;html=1;boundedLbl=1;backgroundOutline=1;darkOpacity=0.05;darkOpacity2=0.1;labelBackgroundColor=none;labelBorderColor=none;strokeColor=#FFFFFF;fontFamily=Calibri;fontColor=#FFFFFF;fillColor=#1966FF;direction=east;size=10;flipV=0;flipH=1;" parent="1" vertex="1">
                    <mxGeometry x="286.25" y="955" width="110" height="45" as="geometry"/>
                </mxCell>
                <mxCell id="171" value="&lt;font color=&quot;#4d4d4d&quot;&gt;Counter&lt;br&gt;0 - 63&lt;br&gt;&lt;/font&gt;" style="text;html=1;strokeColor=none;fillColor=none;align=center;verticalAlign=middle;whiteSpace=wrap;rounded=0;labelBackgroundColor=none;labelBorderColor=none;fontFamily=Lato;fontSource=https%3A%2F%2Ffonts.googleapis.com%2Fcss%3Ffamily%3DLato;fontColor=#FFFFFF;" parent="1" vertex="1">
                    <mxGeometry x="100" y="990" width="60" height="30" as="geometry"/>
                </mxCell>
                <mxCell id="172" value="" style="endArrow=none;html=1;rounded=0;dashed=1;strokeColor=#3399FF;fontFamily=Lato;fontSource=https%3A%2F%2Ffonts.googleapis.com%2Fcss%3Ffamily%3DLato;fontColor=#4D4D4D;" parent="1" edge="1">
                    <mxGeometry width="50" height="50" relative="1" as="geometry">
                        <mxPoint x="60" y="1050.0000000000005" as="sourcePoint"/>
                        <mxPoint x="680" y="1050.0000000000005" as="targetPoint"/>
                    </mxGeometry>
                </mxCell>
                <mxCell id="332" style="edgeStyle=orthogonalEdgeStyle;rounded=0;html=1;strokeColor=#3399FF;strokeWidth=1;fontFamily=Lato;fontSource=https%3A%2F%2Ffonts.googleapis.com%2Fcss%3Ffamily%3DLato;fontColor=#3399FF;endArrow=none;endFill=0;" edge="1" parent="1" source="167" target="331">
                    <mxGeometry relative="1" as="geometry"/>
                </mxCell>
                <mxCell id="167" value="" style="rounded=1;whiteSpace=wrap;html=1;shadow=1;glass=0;strokeColor=none;strokeWidth=1;fontFamily=Lato;fontSource=https%3A%2F%2Ffonts.googleapis.com%2Fcss%3Ffamily%3DLato;fontSize=13;fontColor=#1A1A1A;fillColor=#2A7FD4;arcSize=10;movable=1;resizable=1;rotatable=1;deletable=1;editable=1;connectable=1;" parent="1" vertex="1">
                    <mxGeometry x="156.88" y="985" width="60" height="40" as="geometry"/>
                </mxCell>
                <mxCell id="168" value="&lt;b&gt;&lt;font color=&quot;#2a7fd4&quot;&gt;0&lt;/font&gt;&lt;/b&gt;" style="rounded=1;whiteSpace=wrap;html=1;shadow=0;glass=0;strokeColor=none;strokeWidth=1;fontFamily=Lato;fontSource=https%3A%2F%2Ffonts.googleapis.com%2Fcss%3Ffamily%3DLato;fontSize=13;fontColor=#1A1A1A;fillColor=#FFFFFF;movable=1;resizable=1;rotatable=1;deletable=1;editable=1;connectable=1;" parent="1" vertex="1">
                    <mxGeometry x="162.2357142857142" y="990" width="15" height="30" as="geometry"/>
                </mxCell>
                <mxCell id="169" value="&lt;b&gt;&lt;font color=&quot;#2a7fd4&quot;&gt;1&lt;/font&gt;&lt;/b&gt;" style="rounded=1;whiteSpace=wrap;html=1;shadow=0;glass=0;strokeColor=none;strokeWidth=1;fontFamily=Lato;fontSource=https%3A%2F%2Ffonts.googleapis.com%2Fcss%3Ffamily%3DLato;fontSize=13;fontColor=#1A1A1A;fillColor=#B8D1EA;movable=1;resizable=1;rotatable=1;deletable=1;editable=1;connectable=1;" parent="1" vertex="1">
                    <mxGeometry x="179.37857142857155" y="990" width="15" height="30" as="geometry"/>
                </mxCell>
                <mxCell id="170" value="&lt;b&gt;&lt;font color=&quot;#ffffff&quot;&gt;1&lt;/font&gt;&lt;/b&gt;" style="rounded=1;whiteSpace=wrap;html=1;shadow=0;glass=0;strokeColor=none;strokeWidth=1;fontFamily=Lato;fontSource=https%3A%2F%2Ffonts.googleapis.com%2Fcss%3Ffamily%3DLato;fontSize=13;fontColor=#1A1A1A;fillColor=#99CCFF;movable=1;resizable=1;rotatable=1;deletable=1;editable=1;connectable=1;" parent="1" vertex="1">
                    <mxGeometry x="196.52142857142843" y="990" width="15" height="30" as="geometry"/>
                </mxCell>
                <mxCell id="174" style="edgeStyle=orthogonalEdgeStyle;rounded=0;html=1;entryX=0;entryY=0;entryDx=110;entryDy=25;entryPerimeter=0;strokeColor=#3399FF;fontFamily=Lato;fontSource=https%3A%2F%2Ffonts.googleapis.com%2Fcss%3Ffamily%3DLato;fontColor=#4D4D4D;startArrow=none;startFill=0;endArrow=none;endFill=0;exitX=1;exitY=0.5;exitDx=0;exitDy=0;" parent="1" source="167" target="157" edge="1">
                    <mxGeometry relative="1" as="geometry">
                        <mxPoint x="514.9473684210529" y="480" as="sourcePoint"/>
                        <mxPoint x="485" y="515" as="targetPoint"/>
                        <Array as="points">
                            <mxPoint x="240" y="1005"/>
                            <mxPoint x="240" y="980"/>
                        </Array>
                    </mxGeometry>
                </mxCell>
                <mxCell id="175" value="Read Address" style="text;html=1;strokeColor=none;fillColor=none;align=center;verticalAlign=middle;whiteSpace=wrap;rounded=0;fontFamily=Lato;fontSource=https%3A%2F%2Ffonts.googleapis.com%2Fcss%3Ffamily%3DLato;" parent="1" vertex="1">
                    <mxGeometry x="169.82" y="960" width="125" height="15" as="geometry"/>
                </mxCell>
                <mxCell id="176" style="edgeStyle=orthogonalEdgeStyle;rounded=0;html=1;entryX=0;entryY=0;entryDx=110;entryDy=27.5;entryPerimeter=0;strokeColor=#3399FF;fontFamily=Lato;fontSource=https%3A%2F%2Ffonts.googleapis.com%2Fcss%3Ffamily%3DLato;fontColor=#4D4D4D;startArrow=none;startFill=0;endArrow=none;endFill=0;exitX=1;exitY=0.5;exitDx=0;exitDy=0;" parent="1" source="167" target="159" edge="1">
                    <mxGeometry relative="1" as="geometry">
                        <mxPoint x="201.25" y="990" as="sourcePoint"/>
                        <mxPoint x="296.25" y="990" as="targetPoint"/>
                        <Array as="points">
                            <mxPoint x="240" y="1005"/>
                            <mxPoint x="240" y="1023"/>
                        </Array>
                    </mxGeometry>
                </mxCell>
                <mxCell id="192" style="edgeStyle=elbowEdgeStyle;html=1;entryX=0;entryY=0.5;entryDx=0;entryDy=0;entryPerimeter=0;strokeColor=#3399FF;strokeWidth=2;fontFamily=Lato;fontSource=https%3A%2F%2Ffonts.googleapis.com%2Fcss%3Ffamily%3DLato;fontSize=13;fontColor=#1A1A1A;startArrow=none;startFill=0;endArrow=none;endFill=0;" parent="1" source="177" target="191" edge="1">
                    <mxGeometry relative="1" as="geometry">
                        <Array as="points">
                            <mxPoint x="340" y="1120"/>
                            <mxPoint x="327" y="1120"/>
                        </Array>
                    </mxGeometry>
                </mxCell>
                <mxCell id="227" style="edgeStyle=none;rounded=1;html=1;strokeColor=#3399FF;strokeWidth=2;fontFamily=Lato;fontSource=https%3A%2F%2Ffonts.googleapis.com%2Fcss%3Ffamily%3DLato;fontSize=13;fontColor=#009900;startArrow=none;startFill=0;endArrow=none;endFill=0;" parent="1" source="177" target="226" edge="1">
                    <mxGeometry relative="1" as="geometry"/>
                </mxCell>
                <mxCell id="177" value="&lt;span style=&quot;font-family: Helvetica;&quot;&gt;x old h2&amp;nbsp;&lt;/span&gt;" style="rounded=0;whiteSpace=wrap;html=1;labelBackgroundColor=none;labelBorderColor=none;strokeColor=#FFFFFF;fontFamily=Lato;fontSource=https%3A%2F%2Ffonts.googleapis.com%2Fcss%3Ffamily%3DLato;fontColor=#FFFFFF;fillColor=#3399FF;" parent="1" vertex="1">
                    <mxGeometry x="310" y="1070" width="58.13" height="30" as="geometry"/>
                </mxCell>
                <mxCell id="180" value="&lt;pre style=&quot;border-color: var(--border-color); font-size: 9.8pt;&quot;&gt;&lt;span style=&quot;border-color: var(--border-color);&quot;&gt;&lt;font color=&quot;#009900&quot; style=&quot;border-color: var(--border-color);&quot; data-font-src=&quot;https://fonts.googleapis.com/css?family=Lato&quot; face=&quot;Lato&quot;&gt;&lt;i&gt;y_new = y_old + &lt;br&gt; ((-1 + alpha) *x_old &lt;br&gt;+ beta* updated value) * dt&lt;/i&gt;&lt;/font&gt;&lt;/span&gt;&lt;/pre&gt;" style="text;html=1;strokeColor=none;fillColor=none;align=right;verticalAlign=middle;whiteSpace=wrap;rounded=0;shadow=0;glass=0;strokeWidth=1;fontFamily=Lato;fontSource=https%3A%2F%2Ffonts.googleapis.com%2Fcss%3Ffamily%3DLato;fontSize=13;fontColor=#FFFFFF;" parent="1" vertex="1">
                    <mxGeometry x="-152.32" y="1060" width="172.32" height="50" as="geometry"/>
                </mxCell>
                <mxCell id="181" value="&lt;font color=&quot;#4d4d4d&quot;&gt;Stage H1&lt;/font&gt;" style="text;html=1;strokeColor=none;fillColor=none;align=center;verticalAlign=middle;whiteSpace=wrap;rounded=0;labelBackgroundColor=none;labelBorderColor=none;fontFamily=Lato;fontSource=https%3A%2F%2Ffonts.googleapis.com%2Fcss%3Ffamily%3DLato;fontColor=#FFFFFF;" parent="1" vertex="1">
                    <mxGeometry x="60" y="955" width="60" height="30" as="geometry"/>
                </mxCell>
                <mxCell id="183" value="&lt;font color=&quot;#4d4d4d&quot;&gt;Stage H2&lt;/font&gt;" style="text;html=1;strokeColor=none;fillColor=none;align=center;verticalAlign=middle;whiteSpace=wrap;rounded=0;labelBackgroundColor=none;labelBorderColor=none;fontFamily=Lato;fontSource=https%3A%2F%2Ffonts.googleapis.com%2Fcss%3Ffamily%3DLato;fontColor=#FFFFFF;" parent="1" vertex="1">
                    <mxGeometry x="60" y="1050" width="60" height="30" as="geometry"/>
                </mxCell>
                <mxCell id="196" style="edgeStyle=elbowEdgeStyle;rounded=1;html=1;strokeColor=#3399FF;strokeWidth=2;fontFamily=Lato;fontSource=https%3A%2F%2Ffonts.googleapis.com%2Fcss%3Ffamily%3DLato;fontSize=13;fontColor=#009900;startArrow=none;startFill=0;endArrow=none;endFill=0;" parent="1" source="184" target="195" edge="1">
                    <mxGeometry relative="1" as="geometry">
                        <Array as="points">
                            <mxPoint x="280" y="1130"/>
                            <mxPoint x="270" y="1140"/>
                        </Array>
                    </mxGeometry>
                </mxCell>
                <mxCell id="184" value="&lt;span style=&quot;font-family: Helvetica;&quot;&gt;y old h2&amp;nbsp;&lt;/span&gt;" style="rounded=0;whiteSpace=wrap;html=1;labelBackgroundColor=none;labelBorderColor=none;strokeColor=#FFFFFF;fontFamily=Lato;fontSource=https%3A%2F%2Ffonts.googleapis.com%2Fcss%3Ffamily%3DLato;fontColor=#FFFFFF;fillColor=#3399FF;" parent="1" vertex="1">
                    <mxGeometry x="253.12" y="1070" width="56.88" height="30" as="geometry"/>
                </mxCell>
                <mxCell id="193" style="edgeStyle=elbowEdgeStyle;html=1;entryX=1;entryY=0.5;entryDx=0;entryDy=0;entryPerimeter=0;strokeColor=#3399FF;strokeWidth=2;fontFamily=Lato;fontSource=https%3A%2F%2Ffonts.googleapis.com%2Fcss%3Ffamily%3DLato;fontSize=13;fontColor=#1A1A1A;startArrow=none;startFill=0;endArrow=none;endFill=0;" parent="1" source="185" target="191" edge="1">
                    <mxGeometry relative="1" as="geometry">
                        <Array as="points">
                            <mxPoint x="436" y="1120"/>
                            <mxPoint x="420" y="1120"/>
                        </Array>
                    </mxGeometry>
                </mxCell>
                <mxCell id="185" value="" style="verticalLabelPosition=bottom;shadow=0;dashed=0;align=center;html=1;verticalAlign=top;shape=mxgraph.electrical.abstract.summation_point;labelBackgroundColor=none;labelBorderColor=none;strokeColor=#3399FF;fontFamily=Lato;fontSource=https%3A%2F%2Ffonts.googleapis.com%2Fcss%3Ffamily%3DLato;fontColor=#4D4D4D;fillColor=#CCE5FF;" parent="1" vertex="1">
                    <mxGeometry x="421.25" y="1070" width="30" height="30" as="geometry"/>
                </mxCell>
                <mxCell id="187" style="edgeStyle=elbowEdgeStyle;html=1;entryX=0;entryY=0.5;entryDx=0;entryDy=0;entryPerimeter=0;strokeColor=#3399FF;strokeWidth=2;fontFamily=Lato;fontSource=https%3A%2F%2Ffonts.googleapis.com%2Fcss%3Ffamily%3DLato;fontSize=13;fontColor=#1A1A1A;startArrow=none;startFill=0;endArrow=none;endFill=0;" parent="1" target="185" edge="1">
                    <mxGeometry relative="1" as="geometry">
                        <mxPoint x="406.25" y="1085" as="sourcePoint"/>
                    </mxGeometry>
                </mxCell>
                <mxCell id="189" style="edgeStyle=elbowEdgeStyle;html=1;entryX=1;entryY=0.5;entryDx=0;entryDy=0;entryPerimeter=0;strokeColor=#3399FF;strokeWidth=2;fontFamily=Lato;fontSource=https%3A%2F%2Ffonts.googleapis.com%2Fcss%3Ffamily%3DLato;fontSize=13;fontColor=#1A1A1A;startArrow=none;startFill=0;endArrow=none;endFill=0;" parent="1" source="188" target="185" edge="1">
                    <mxGeometry relative="1" as="geometry"/>
                </mxCell>
                <mxCell id="188" value="&lt;span style=&quot;font-family: Helvetica;&quot;&gt;&lt;i&gt;alpha&lt;/i&gt;&lt;/span&gt;" style="rounded=0;whiteSpace=wrap;html=1;labelBackgroundColor=none;labelBorderColor=none;strokeColor=#FFFFFF;fontFamily=Lato;fontSource=https%3A%2F%2Ffonts.googleapis.com%2Fcss%3Ffamily%3DLato;fontColor=#B3FF66;fillColor=#3399FF;" parent="1" vertex="1">
                    <mxGeometry x="471.25" y="1070" width="53.75" height="30" as="geometry"/>
                </mxCell>
                <mxCell id="213" style="edgeStyle=orthogonalEdgeStyle;rounded=1;html=1;entryX=0;entryY=0.5;entryDx=0;entryDy=0;entryPerimeter=0;strokeColor=#3399FF;strokeWidth=2;fontFamily=Lato;fontSource=https%3A%2F%2Ffonts.googleapis.com%2Fcss%3Ffamily%3DLato;fontSize=13;fontColor=#B3FF66;startArrow=none;startFill=0;endArrow=none;endFill=0;" parent="1" source="191" target="212" edge="1">
                    <mxGeometry relative="1" as="geometry">
                        <Array as="points">
                            <mxPoint x="390" y="1170"/>
                        </Array>
                    </mxGeometry>
                </mxCell>
                <mxCell id="191" value="" style="verticalLabelPosition=bottom;shadow=0;dashed=0;align=center;html=1;verticalAlign=top;shape=mxgraph.electrical.abstract.multiplier;labelBackgroundColor=none;labelBorderColor=none;strokeColor=#3399FF;fontFamily=Lato;fontSource=https%3A%2F%2Ffonts.googleapis.com%2Fcss%3Ffamily%3DLato;fontColor=#4D4D4D;fillColor=#CCE5FF;" parent="1" vertex="1">
                    <mxGeometry x="375" y="1120" width="30" height="30" as="geometry"/>
                </mxCell>
                <mxCell id="305" style="edgeStyle=orthogonalEdgeStyle;curved=1;html=1;entryX=0.5;entryY=0;entryDx=0;entryDy=0;strokeColor=#3399FF;strokeWidth=2;endArrow=none;endFill=0;" edge="1" parent="1" source="195" target="224">
                    <mxGeometry relative="1" as="geometry"/>
                </mxCell>
                <mxCell id="195" value="" style="verticalLabelPosition=bottom;shadow=0;dashed=0;align=center;html=1;verticalAlign=top;shape=mxgraph.electrical.abstract.summation_point;labelBackgroundColor=none;labelBorderColor=none;strokeColor=#3399FF;fontFamily=Lato;fontSource=https%3A%2F%2Ffonts.googleapis.com%2Fcss%3Ffamily%3DLato;fontColor=#4D4D4D;fillColor=#CCE5FF;" parent="1" vertex="1">
                    <mxGeometry x="405" y="1200" width="30" height="30" as="geometry"/>
                </mxCell>
                <mxCell id="208" style="edgeStyle=orthogonalEdgeStyle;rounded=1;html=1;entryX=0;entryY=0.5;entryDx=0;entryDy=0;entryPerimeter=0;strokeColor=#3399FF;strokeWidth=2;fontFamily=Lato;fontSource=https%3A%2F%2Ffonts.googleapis.com%2Fcss%3Ffamily%3DLato;fontSize=13;fontColor=#B3FF66;startArrow=none;startFill=0;endArrow=none;endFill=0;" parent="1" source="198" target="207" edge="1">
                    <mxGeometry relative="1" as="geometry"/>
                </mxCell>
                <mxCell id="198" value="&lt;span style=&quot;font-family: Helvetica;&quot;&gt;MM Result&lt;/span&gt;" style="rounded=0;whiteSpace=wrap;html=1;labelBackgroundColor=none;labelBorderColor=none;strokeColor=#FFFFFF;fontFamily=Lato;fontSource=https%3A%2F%2Ffonts.googleapis.com%2Fcss%3Ffamily%3DLato;fontColor=#FFFFFF;fillColor=#3399FF;" parent="1" vertex="1">
                    <mxGeometry x="540" y="1070" width="70" height="30" as="geometry"/>
                </mxCell>
                <mxCell id="209" style="edgeStyle=orthogonalEdgeStyle;rounded=1;html=1;entryX=1;entryY=0.5;entryDx=0;entryDy=0;entryPerimeter=0;strokeColor=#3399FF;strokeWidth=2;fontFamily=Lato;fontSource=https%3A%2F%2Ffonts.googleapis.com%2Fcss%3Ffamily%3DLato;fontSize=13;fontColor=#B3FF66;startArrow=none;startFill=0;endArrow=none;endFill=0;" parent="1" source="199" target="207" edge="1">
                    <mxGeometry relative="1" as="geometry"/>
                </mxCell>
                <mxCell id="199" value="&lt;span style=&quot;font-family: Helvetica;&quot;&gt;&lt;i&gt;&lt;font color=&quot;#b3ff66&quot;&gt;Beta&lt;/font&gt;&lt;/i&gt;&lt;/span&gt;" style="rounded=0;whiteSpace=wrap;html=1;labelBackgroundColor=none;labelBorderColor=none;strokeColor=#FFFFFF;fontFamily=Lato;fontSource=https%3A%2F%2Ffonts.googleapis.com%2Fcss%3Ffamily%3DLato;fontColor=#33FF33;fillColor=#3399FF;" parent="1" vertex="1">
                    <mxGeometry x="620" y="1070" width="70" height="30" as="geometry"/>
                </mxCell>
                <mxCell id="214" style="edgeStyle=orthogonalEdgeStyle;rounded=1;html=1;entryX=1;entryY=0.5;entryDx=0;entryDy=0;entryPerimeter=0;strokeColor=#3399FF;strokeWidth=2;fontFamily=Lato;fontSource=https%3A%2F%2Ffonts.googleapis.com%2Fcss%3Ffamily%3DLato;fontSize=13;fontColor=#B3FF66;startArrow=none;startFill=0;endArrow=none;endFill=0;" parent="1" source="207" target="212" edge="1">
                    <mxGeometry relative="1" as="geometry">
                        <Array as="points">
                            <mxPoint x="615" y="1170"/>
                        </Array>
                    </mxGeometry>
                </mxCell>
                <mxCell id="207" value="" style="verticalLabelPosition=bottom;shadow=0;dashed=0;align=center;html=1;verticalAlign=top;shape=mxgraph.electrical.abstract.multiplier;labelBackgroundColor=none;labelBorderColor=none;strokeColor=#3399FF;fontFamily=Lato;fontSource=https%3A%2F%2Ffonts.googleapis.com%2Fcss%3Ffamily%3DLato;fontColor=#4D4D4D;fillColor=#CCE5FF;" parent="1" vertex="1">
                    <mxGeometry x="600" y="1120" width="30" height="30" as="geometry"/>
                </mxCell>
                <mxCell id="217" style="edgeStyle=orthogonalEdgeStyle;rounded=1;html=1;strokeColor=#3399FF;strokeWidth=2;fontFamily=Lato;fontSource=https%3A%2F%2Ffonts.googleapis.com%2Fcss%3Ffamily%3DLato;fontSize=13;fontColor=#B3FF66;startArrow=none;startFill=0;endArrow=none;endFill=0;" parent="1" source="211" target="215" edge="1">
                    <mxGeometry relative="1" as="geometry"/>
                </mxCell>
                <mxCell id="230" style="edgeStyle=orthogonalEdgeStyle;rounded=1;html=1;entryX=1;entryY=0.5;entryDx=0;entryDy=0;entryPerimeter=0;strokeColor=#3399FF;strokeWidth=2;fontFamily=Lato;fontSource=https%3A%2F%2Ffonts.googleapis.com%2Fcss%3Ffamily%3DLato;fontSize=13;fontColor=#009900;startArrow=none;startFill=0;endArrow=none;endFill=0;" parent="1" source="211" target="229" edge="1">
                    <mxGeometry relative="1" as="geometry">
                        <Array as="points">
                            <mxPoint x="570" y="1305"/>
                        </Array>
                    </mxGeometry>
                </mxCell>
                <mxCell id="211" value="&lt;span style=&quot;font-family: Helvetica;&quot;&gt;&lt;i&gt;xi_dt&lt;/i&gt;&lt;/span&gt;" style="rounded=0;whiteSpace=wrap;html=1;labelBackgroundColor=none;labelBorderColor=none;strokeColor=#FFFFFF;fontFamily=Lato;fontSource=https%3A%2F%2Ffonts.googleapis.com%2Fcss%3Ffamily%3DLato;fontColor=#B3FF66;fillColor=#3399FF;" parent="1" vertex="1">
                    <mxGeometry x="540.0000000000001" y="1200" width="53.75" height="30" as="geometry"/>
                </mxCell>
                <mxCell id="216" style="edgeStyle=orthogonalEdgeStyle;rounded=1;html=1;entryX=0.5;entryY=0;entryDx=0;entryDy=0;entryPerimeter=0;strokeColor=#3399FF;strokeWidth=2;fontFamily=Lato;fontSource=https%3A%2F%2Ffonts.googleapis.com%2Fcss%3Ffamily%3DLato;fontSize=13;fontColor=#B3FF66;startArrow=none;startFill=0;endArrow=none;endFill=0;" parent="1" source="212" target="215" edge="1">
                    <mxGeometry relative="1" as="geometry"/>
                </mxCell>
                <mxCell id="212" value="" style="verticalLabelPosition=bottom;shadow=0;dashed=0;align=center;html=1;verticalAlign=top;shape=mxgraph.electrical.abstract.summation_point;labelBackgroundColor=none;labelBorderColor=none;strokeColor=#3399FF;fontFamily=Lato;fontSource=https%3A%2F%2Ffonts.googleapis.com%2Fcss%3Ffamily%3DLato;fontColor=#4D4D4D;fillColor=#CCE5FF;" parent="1" vertex="1">
                    <mxGeometry x="495" y="1155" width="30" height="30" as="geometry"/>
                </mxCell>
                <mxCell id="304" style="edgeStyle=orthogonalEdgeStyle;curved=1;html=1;entryX=1;entryY=0.5;entryDx=0;entryDy=0;entryPerimeter=0;strokeColor=#3399FF;strokeWidth=2;endArrow=none;endFill=0;" edge="1" parent="1" source="215" target="195">
                    <mxGeometry relative="1" as="geometry"/>
                </mxCell>
                <mxCell id="215" value="" style="verticalLabelPosition=bottom;shadow=0;dashed=0;align=center;html=1;verticalAlign=top;shape=mxgraph.electrical.abstract.multiplier;labelBackgroundColor=none;labelBorderColor=none;strokeColor=#3399FF;fontFamily=Lato;fontSource=https%3A%2F%2Ffonts.googleapis.com%2Fcss%3Ffamily%3DLato;fontColor=#4D4D4D;fillColor=#CCE5FF;" parent="1" vertex="1">
                    <mxGeometry x="495" y="1200" width="30" height="30" as="geometry"/>
                </mxCell>
                <mxCell id="219" value="" style="endArrow=none;html=1;rounded=0;dashed=1;strokeColor=#3399FF;fontFamily=Lato;fontSource=https%3A%2F%2Ffonts.googleapis.com%2Fcss%3Ffamily%3DLato;fontColor=#4D4D4D;" parent="1" edge="1">
                    <mxGeometry width="50" height="50" relative="1" as="geometry">
                        <mxPoint x="60" y="1240.0000000000005" as="sourcePoint"/>
                        <mxPoint x="680" y="1240.0000000000005" as="targetPoint"/>
                    </mxGeometry>
                </mxCell>
                <mxCell id="220" value="&lt;div style=&quot;background-color:#222222;color:#f7f1ff&quot;&gt;&lt;pre style=&quot;font-size: 9.8pt;&quot;&gt;&lt;br&gt;&lt;/pre&gt;&lt;/div&gt;" style="rounded=1;whiteSpace=wrap;html=1;fillColor=#CCE5FF;arcSize=20;strokeColor=#3399FF;strokeWidth=2;shadow=1;glass=0;" parent="1" vertex="1">
                    <mxGeometry x="35" y="1670" width="660" height="160" as="geometry"/>
                </mxCell>
                <mxCell id="221" value="&lt;font style=&quot;font-size: 14px;&quot; color=&quot;#4d4d4d&quot;&gt;&lt;b&gt;Write&amp;nbsp;&lt;br&gt;Back&lt;/b&gt;&lt;br&gt;&lt;/font&gt;" style="text;html=1;strokeColor=none;fillColor=none;align=center;verticalAlign=middle;whiteSpace=wrap;rounded=0;labelBackgroundColor=none;labelBorderColor=none;fontFamily=Lato;fontSource=https%3A%2F%2Ffonts.googleapis.com%2Fcss%3Ffamily%3DLato;fontColor=#FFFFFF;" parent="1" vertex="1">
                    <mxGeometry x="-50" y="1670" width="60" height="40" as="geometry"/>
                </mxCell>
                <mxCell id="222" value="&lt;font color=&quot;#4d4d4d&quot;&gt;Stage H3&lt;/font&gt;" style="text;html=1;strokeColor=none;fillColor=none;align=center;verticalAlign=middle;whiteSpace=wrap;rounded=0;labelBackgroundColor=none;labelBorderColor=none;fontFamily=Lato;fontSource=https%3A%2F%2Ffonts.googleapis.com%2Fcss%3Ffamily%3DLato;fontColor=#FFFFFF;" parent="1" vertex="1">
                    <mxGeometry x="60" y="1240" width="60" height="30" as="geometry"/>
                </mxCell>
                <mxCell id="223" value="&lt;div style=&quot;border-color: var(--border-color); font-size: 9.8pt;&quot;&gt;&lt;div style=&quot;&quot;&gt;&lt;div style=&quot;font-size: 9.8pt;&quot;&gt;&lt;font color=&quot;#009900&quot;&gt;&lt;span style=&quot;font-style: italic;&quot;&gt;x_new = x_old + y_new * dt&lt;br&gt;&lt;/span&gt;&lt;span style=&quot;font-style: italic;&quot;&gt;y_comp[np.abs(x_comp) &amp;gt; 1] = 0  &lt;br&gt;&lt;/span&gt;&lt;span style=&quot;font-style: italic;&quot;&gt;np.clip(x_comp,-1, 1)&lt;/span&gt;&lt;/font&gt;&lt;/div&gt;&lt;/div&gt;&lt;/div&gt;" style="text;html=1;strokeColor=none;fillColor=none;align=right;verticalAlign=middle;whiteSpace=wrap;rounded=0;shadow=0;glass=0;strokeWidth=1;fontFamily=Lato;fontSource=https%3A%2F%2Ffonts.googleapis.com%2Fcss%3Ffamily%3DLato;fontSize=13;fontColor=#FFFFFF;labelBackgroundColor=none;" parent="1" vertex="1">
                    <mxGeometry x="-230" y="1240" width="250" height="50" as="geometry"/>
                </mxCell>
                <mxCell id="235" style="edgeStyle=orthogonalEdgeStyle;rounded=1;html=1;entryX=0;entryY=0.5;entryDx=0;entryDy=0;entryPerimeter=0;strokeColor=#3399FF;strokeWidth=2;fontFamily=Lato;fontSource=https%3A%2F%2Ffonts.googleapis.com%2Fcss%3Ffamily%3DLato;fontSize=13;fontColor=#009900;startArrow=none;startFill=0;endArrow=none;endFill=0;" parent="1" source="224" target="229" edge="1">
                    <mxGeometry relative="1" as="geometry">
                        <Array as="points">
                            <mxPoint x="420" y="1305"/>
                        </Array>
                    </mxGeometry>
                </mxCell>
                <mxCell id="322" style="edgeStyle=orthogonalEdgeStyle;rounded=0;html=1;entryX=0;entryY=0.6000000000000001;entryDx=0;entryDy=3;entryPerimeter=0;strokeColor=#3399FF;strokeWidth=1;fontFamily=Lato;fontSource=https%3A%2F%2Ffonts.googleapis.com%2Fcss%3Ffamily%3DLato;fontColor=#3399FF;endArrow=none;endFill=0;" edge="1" parent="1" source="224" target="320">
                    <mxGeometry relative="1" as="geometry"/>
                </mxCell>
                <mxCell id="224" value="&lt;span style=&quot;font-family: Helvetica;&quot;&gt;y new h3&amp;nbsp;&lt;/span&gt;" style="rounded=0;whiteSpace=wrap;html=1;labelBackgroundColor=none;labelBorderColor=none;strokeColor=#FFFFFF;fontFamily=Lato;fontSource=https%3A%2F%2Ffonts.googleapis.com%2Fcss%3Ffamily%3DLato;fontColor=#FFFFFF;fillColor=#3399FF;" parent="1" vertex="1">
                    <mxGeometry x="391.56" y="1250" width="56.88" height="30" as="geometry"/>
                </mxCell>
                <mxCell id="279" value="" style="html=1;shadow=1;align=center;verticalAlign=middle;shape=mxgraph.arrows2.arrow;dy=0.51;dx=16.55;direction=south;notch=0;glass=0;strokeColor=#3399FF;strokeWidth=2;fontSize=10;fontColor=#1A1A1A;fillColor=#E6E6E6;" parent="1" vertex="1">
                    <mxGeometry x="455" y="120" width="26.25" height="29.26" as="geometry"/>
                </mxCell>
                <mxCell id="238" style="edgeStyle=orthogonalEdgeStyle;rounded=1;html=1;entryX=0;entryY=0.5;entryDx=0;entryDy=0;entryPerimeter=0;strokeColor=#3399FF;strokeWidth=2;fontFamily=Lato;fontSource=https%3A%2F%2Ffonts.googleapis.com%2Fcss%3Ffamily%3DLato;fontSize=13;fontColor=#009900;startArrow=none;startFill=0;endArrow=none;endFill=0;" parent="1" source="226" target="236" edge="1">
                    <mxGeometry relative="1" as="geometry">
                        <Array as="points">
                            <mxPoint x="340" y="1345"/>
                        </Array>
                    </mxGeometry>
                </mxCell>
                <mxCell id="226" value="&lt;span style=&quot;font-family: Helvetica;&quot;&gt;x old h3&amp;nbsp;&lt;/span&gt;" style="rounded=0;whiteSpace=wrap;html=1;labelBackgroundColor=none;labelBorderColor=none;strokeColor=#FFFFFF;fontFamily=Lato;fontSource=https%3A%2F%2Ffonts.googleapis.com%2Fcss%3Ffamily%3DLato;fontColor=#FFFFFF;fillColor=#3399FF;" parent="1" vertex="1">
                    <mxGeometry x="310" y="1250" width="56.88" height="30" as="geometry"/>
                </mxCell>
                <mxCell id="276" value="" style="html=1;shadow=1;align=center;verticalAlign=middle;shape=mxgraph.arrows2.arrow;dy=0.51;dx=16.55;direction=south;notch=0;glass=0;strokeColor=#3399FF;strokeWidth=2;fontSize=10;fontColor=#1A1A1A;fillColor=#E6E6E6;" parent="1" vertex="1">
                    <mxGeometry x="445" y="120" width="26.25" height="40" as="geometry"/>
                </mxCell>
                <mxCell id="237" style="edgeStyle=orthogonalEdgeStyle;rounded=1;html=1;entryX=1;entryY=0.5;entryDx=0;entryDy=0;entryPerimeter=0;strokeColor=#3399FF;strokeWidth=2;fontFamily=Lato;fontSource=https%3A%2F%2Ffonts.googleapis.com%2Fcss%3Ffamily%3DLato;fontSize=13;fontColor=#009900;startArrow=none;startFill=0;endArrow=none;endFill=0;" parent="1" source="229" target="236" edge="1">
                    <mxGeometry relative="1" as="geometry">
                        <Array as="points">
                            <mxPoint x="498" y="1345"/>
                        </Array>
                    </mxGeometry>
                </mxCell>
                <mxCell id="275" value="" style="html=1;shadow=1;align=center;verticalAlign=middle;shape=mxgraph.arrows2.arrow;dy=0.51;dx=16.55;direction=south;notch=0;glass=0;strokeColor=#3399FF;strokeWidth=2;fontSize=10;fontColor=#1A1A1A;fillColor=#E6E6E6;" parent="1" vertex="1">
                    <mxGeometry x="435" y="120" width="23.75" height="50" as="geometry"/>
                </mxCell>
                <mxCell id="274" value="" style="html=1;shadow=1;align=center;verticalAlign=middle;shape=mxgraph.arrows2.arrow;dy=0.51;dx=16.55;direction=south;notch=0;glass=0;strokeColor=#3399FF;strokeWidth=2;fontSize=10;fontColor=#1A1A1A;fillColor=#E6E6E6;" parent="1" vertex="1">
                    <mxGeometry x="425" y="120" width="23.75" height="60" as="geometry"/>
                </mxCell>
                <mxCell id="229" value="" style="verticalLabelPosition=bottom;shadow=0;dashed=0;align=center;html=1;verticalAlign=top;shape=mxgraph.electrical.abstract.multiplier;labelBackgroundColor=none;labelBorderColor=none;strokeColor=#3399FF;fontFamily=Lato;fontSource=https%3A%2F%2Ffonts.googleapis.com%2Fcss%3Ffamily%3DLato;fontColor=#4D4D4D;fillColor=#CCE5FF;" parent="1" vertex="1">
                    <mxGeometry x="481.56" y="1290" width="30" height="30" as="geometry"/>
                </mxCell>
                <mxCell id="273" value="" style="html=1;shadow=1;align=center;verticalAlign=middle;shape=mxgraph.arrows2.arrow;dy=0.51;dx=16.55;direction=south;notch=0;glass=0;strokeColor=#3399FF;strokeWidth=2;fontSize=10;fontColor=#1A1A1A;fillColor=#E6E6E6;" parent="1" vertex="1">
                    <mxGeometry x="415" y="120" width="23.75" height="70" as="geometry"/>
                </mxCell>
                <mxCell id="272" value="" style="html=1;shadow=1;align=center;verticalAlign=middle;shape=mxgraph.arrows2.arrow;dy=0.51;dx=16.55;direction=south;notch=0;glass=0;strokeColor=#3399FF;strokeWidth=2;fontSize=10;fontColor=#1A1A1A;fillColor=#E6E6E6;" parent="1" vertex="1">
                    <mxGeometry x="405" y="120" width="23.75" height="79.26" as="geometry"/>
                </mxCell>
                <mxCell id="315" style="edgeStyle=elbowEdgeStyle;rounded=0;elbow=vertical;html=1;entryX=0;entryY=0.6000000000000001;entryDx=0;entryDy=3;entryPerimeter=0;strokeColor=#3399FF;strokeWidth=1;fontFamily=Lato;fontSource=https%3A%2F%2Ffonts.googleapis.com%2Fcss%3Ffamily%3DLato;fontColor=default;endArrow=none;endFill=0;" edge="1" parent="1" source="236" target="313">
                    <mxGeometry relative="1" as="geometry"/>
                </mxCell>
                <mxCell id="319" style="edgeStyle=elbowEdgeStyle;rounded=0;elbow=vertical;html=1;entryX=0.5;entryY=0;entryDx=0;entryDy=0;strokeColor=#3399FF;strokeWidth=1;fontFamily=Lato;fontSource=https%3A%2F%2Ffonts.googleapis.com%2Fcss%3Ffamily%3DLato;fontColor=#3399FF;endArrow=none;endFill=0;" edge="1" parent="1" source="236" target="306">
                    <mxGeometry relative="1" as="geometry"/>
                </mxCell>
                <mxCell id="236" value="" style="verticalLabelPosition=bottom;shadow=0;dashed=0;align=center;html=1;verticalAlign=top;shape=mxgraph.electrical.abstract.summation_point;labelBackgroundColor=none;labelBorderColor=none;strokeColor=#3399FF;fontFamily=Lato;fontSource=https%3A%2F%2Ffonts.googleapis.com%2Fcss%3Ffamily%3DLato;fontColor=#4D4D4D;fillColor=#CCE5FF;" parent="1" vertex="1">
                    <mxGeometry x="404" y="1330" width="30" height="30" as="geometry"/>
                </mxCell>
                <mxCell id="250" value="&lt;font data-font-src=&quot;https://fonts.googleapis.com/css?family=Lato&quot; face=&quot;Lato&quot;&gt;FIFO &lt;br&gt;&lt;font style=&quot;font-size: 10px;&quot;&gt;128bit&lt;/font&gt;&lt;/font&gt;" style="shape=cube;whiteSpace=wrap;html=1;boundedLbl=1;backgroundOutline=1;darkOpacity=0.05;darkOpacity2=0.1;labelBackgroundColor=none;labelBorderColor=none;strokeColor=#FFFFFF;fontFamily=Calibri;fontColor=#FFFFFF;fillColor=#FF8000;direction=east;size=10;flipV=0;flipH=1;" parent="1" vertex="1">
                    <mxGeometry x="345" y="69.25999999999999" width="155" height="40" as="geometry"/>
                </mxCell>
                <mxCell id="261" value="" style="html=1;shadow=1;align=center;verticalAlign=middle;shape=mxgraph.arrows2.arrow;dy=0.51;dx=16.55;direction=south;notch=0;glass=0;strokeColor=#3399FF;strokeWidth=2;fontSize=10;fontColor=#1A1A1A;fillColor=#E6E6E6;" parent="1" vertex="1">
                    <mxGeometry x="395" y="120" width="23.75" height="90" as="geometry"/>
                </mxCell>
                <mxCell id="265" value="" style="html=1;shadow=1;align=center;verticalAlign=middle;shape=mxgraph.arrows2.arrow;dy=0.61;dx=26.4;direction=south;notch=0;glass=0;strokeColor=#3399FF;strokeWidth=2;fontSize=10;fontColor=#1A1A1A;fillColor=#E6E6E6;" parent="1" vertex="1">
                    <mxGeometry x="368.75" y="-150.74" width="41.25" height="90" as="geometry"/>
                </mxCell>
                <mxCell id="289" value="" style="endArrow=none;html=1;rounded=0;dashed=1;strokeColor=#3399FF;fontFamily=Lato;fontSource=https%3A%2F%2Ffonts.googleapis.com%2Fcss%3Ffamily%3DLato;fontColor=#4D4D4D;" parent="1" edge="1">
                    <mxGeometry width="50" height="50" relative="1" as="geometry">
                        <mxPoint x="65" y="860" as="sourcePoint"/>
                        <mxPoint x="685" y="860" as="targetPoint"/>
                    </mxGeometry>
                </mxCell>
                <mxCell id="291" value="" style="endArrow=none;html=1;rounded=0;dashed=1;strokeColor=#3399FF;fontFamily=Lato;fontSource=https%3A%2F%2Ffonts.googleapis.com%2Fcss%3Ffamily%3DLato;fontColor=#4D4D4D;" parent="1" edge="1">
                    <mxGeometry width="50" height="50" relative="1" as="geometry">
                        <mxPoint x="45" y="1650" as="sourcePoint"/>
                        <mxPoint x="665" y="1650" as="targetPoint"/>
                    </mxGeometry>
                </mxCell>
                <mxCell id="92" value="&lt;font color=&quot;#4d4d4d&quot;&gt;Stage H1&lt;/font&gt;" style="text;html=1;strokeColor=none;fillColor=none;align=center;verticalAlign=middle;whiteSpace=wrap;rounded=0;labelBackgroundColor=none;labelBorderColor=none;fontFamily=Lato;fontSource=https%3A%2F%2Ffonts.googleapis.com%2Fcss%3Ffamily%3DLato;fontColor=#FFFFFF;" parent="1" vertex="1">
                    <mxGeometry x="60" y="760" width="60" height="30" as="geometry"/>
                </mxCell>
                <mxCell id="112" value="" style="rounded=1;whiteSpace=wrap;html=1;fillColor=#CCE5FF;arcSize=15;strokeColor=#3399FF;strokeWidth=2;shadow=1;glass=0;" parent="1" vertex="1">
                    <mxGeometry x="40" y="750" width="660" height="170" as="geometry"/>
                </mxCell>
                <mxCell id="93" value="" style="shape=cube;whiteSpace=wrap;html=1;boundedLbl=1;backgroundOutline=1;darkOpacity=0.05;darkOpacity2=0.1;labelBackgroundColor=none;labelBorderColor=none;strokeColor=#FFFFFF;fontFamily=Calibri;fontColor=#FFFFFF;fillColor=#FF8000;direction=east;size=10;flipV=0;flipH=1;" parent="1" vertex="1">
                    <mxGeometry x="81.25" y="755" width="90" height="40" as="geometry"/>
                </mxCell>
                <mxCell id="94" value="&lt;font data-font-src=&quot;https://fonts.googleapis.com/css?family=Lato&quot; face=&quot;Lato&quot;&gt;Updated Reg P1&lt;/font&gt;" style="shape=cube;whiteSpace=wrap;html=1;boundedLbl=1;backgroundOutline=1;darkOpacity=0.05;darkOpacity2=0.1;labelBackgroundColor=none;labelBorderColor=none;strokeColor=#FFFFFF;fontFamily=Calibri;fontColor=#FFFFFF;fillColor=#FF8000;direction=east;size=0;flipV=0;flipH=1;" parent="1" vertex="1">
                    <mxGeometry x="76.25" y="770" width="80" height="30" as="geometry"/>
                </mxCell>
                <mxCell id="95" value="" style="shape=cube;whiteSpace=wrap;html=1;boundedLbl=1;backgroundOutline=1;darkOpacity=0.05;darkOpacity2=0.1;labelBackgroundColor=none;labelBorderColor=none;strokeColor=#FFFFFF;fontFamily=Calibri;fontColor=#FFFFFF;fillColor=#FF8000;direction=east;size=10;flipV=0;flipH=1;" parent="1" vertex="1">
                    <mxGeometry x="306.25" y="755" width="90" height="40" as="geometry"/>
                </mxCell>
                <mxCell id="96" value="&lt;font data-font-src=&quot;https://fonts.googleapis.com/css?family=Lato&quot; face=&quot;Lato&quot;&gt;Updated Reg P7&lt;/font&gt;" style="shape=cube;whiteSpace=wrap;html=1;boundedLbl=1;backgroundOutline=1;darkOpacity=0.05;darkOpacity2=0.1;labelBackgroundColor=none;labelBorderColor=none;strokeColor=#FFFFFF;fontFamily=Calibri;fontColor=#FFFFFF;fillColor=#FF8000;direction=east;size=0;flipV=0;flipH=1;" parent="1" vertex="1">
                    <mxGeometry x="301.25" y="770" width="80" height="30" as="geometry"/>
                </mxCell>
                <mxCell id="97" value="Updated Reg x 6" style="text;html=1;strokeColor=none;fillColor=none;align=center;verticalAlign=middle;whiteSpace=wrap;rounded=0;fontFamily=Lato;fontSource=https%3A%2F%2Ffonts.googleapis.com%2Fcss%3Ffamily%3DLato;" parent="1" vertex="1">
                    <mxGeometry x="171.25" y="770" width="125" height="30" as="geometry"/>
                </mxCell>
                <mxCell id="98" value="" style="verticalLabelPosition=bottom;shadow=0;dashed=0;align=center;html=1;verticalAlign=top;shape=mxgraph.electrical.abstract.summation_point;labelBackgroundColor=none;labelBorderColor=none;strokeColor=#3399FF;fontFamily=Lato;fontSource=https%3A%2F%2Ffonts.googleapis.com%2Fcss%3Ffamily%3DLato;fontColor=#4D4D4D;fillColor=#CCE5FF;" parent="1" vertex="1">
                    <mxGeometry x="218.75" y="820" width="30" height="30" as="geometry"/>
                </mxCell>
                <mxCell id="101" style="edgeStyle=orthogonalEdgeStyle;rounded=0;html=1;strokeColor=#3399FF;fontFamily=Lato;fontSource=https%3A%2F%2Ffonts.googleapis.com%2Fcss%3Ffamily%3DLato;fontColor=#4D4D4D;startArrow=none;startFill=0;endArrow=blockThin;endFill=1;exitX=0;exitY=0;exitDx=40;exitDy=30;exitPerimeter=0;entryX=0;entryY=0.5;entryDx=0;entryDy=0;entryPerimeter=0;" parent="1" source="94" target="98" edge="1">
                    <mxGeometry relative="1" as="geometry">
                        <Array as="points">
                            <mxPoint x="116.25" y="835"/>
                        </Array>
                        <mxPoint x="121.25" y="835" as="sourcePoint"/>
                        <mxPoint x="171.25" y="870" as="targetPoint"/>
                    </mxGeometry>
                </mxCell>
                <mxCell id="102" style="edgeStyle=orthogonalEdgeStyle;rounded=0;html=1;strokeColor=#3399FF;fontFamily=Lato;fontSource=https%3A%2F%2Ffonts.googleapis.com%2Fcss%3Ffamily%3DLato;fontColor=#4D4D4D;startArrow=none;startFill=0;endArrow=blockThin;endFill=1;exitX=0;exitY=0;exitDx=40;exitDy=30;exitPerimeter=0;entryX=1;entryY=0.5;entryDx=0;entryDy=0;entryPerimeter=0;" parent="1" source="96" target="98" edge="1">
                    <mxGeometry relative="1" as="geometry">
                        <Array as="points">
                            <mxPoint x="341.25" y="835"/>
                        </Array>
                        <mxPoint x="111.25" y="810" as="sourcePoint"/>
                        <mxPoint x="228.75" y="865" as="targetPoint"/>
                    </mxGeometry>
                </mxCell>
                <mxCell id="105" value="&lt;font style=&quot;font-size: 14px;&quot; color=&quot;#4d4d4d&quot;&gt;&lt;b&gt;Result&lt;br&gt;Addition &lt;br&gt;&amp;amp; Reg PingPong Switch&lt;/b&gt;&lt;br&gt;&lt;/font&gt;" style="text;html=1;strokeColor=none;fillColor=none;align=center;verticalAlign=middle;whiteSpace=wrap;rounded=0;labelBackgroundColor=none;labelBorderColor=none;fontFamily=Lato;fontSource=https%3A%2F%2Ffonts.googleapis.com%2Fcss%3Ffamily%3DLato;fontColor=#FFFFFF;" parent="1" vertex="1">
                    <mxGeometry x="-50" y="752.5" width="60" height="75" as="geometry"/>
                </mxCell>
                <mxCell id="111" style="edgeStyle=orthogonalEdgeStyle;rounded=0;html=1;strokeColor=#3399FF;fontFamily=Lato;fontSource=https%3A%2F%2Ffonts.googleapis.com%2Fcss%3Ffamily%3DLato;fontColor=#4D4D4D;startArrow=none;startFill=0;endArrow=blockThin;endFill=1;exitX=0.5;exitY=1;exitDx=0;exitDy=0;entryX=0.5;entryY=0;entryDx=0;entryDy=0;entryPerimeter=0;" parent="1" source="97" target="98" edge="1">
                    <mxGeometry relative="1" as="geometry">
                        <Array as="points">
                            <mxPoint x="234.25" y="810"/>
                            <mxPoint x="234.25" y="810"/>
                        </Array>
                        <mxPoint x="358.75" y="810" as="sourcePoint"/>
                        <mxPoint x="258.75" y="845" as="targetPoint"/>
                    </mxGeometry>
                </mxCell>
                <mxCell id="116" value="" style="shape=cube;whiteSpace=wrap;html=1;boundedLbl=1;backgroundOutline=1;darkOpacity=0.05;darkOpacity2=0.1;labelBackgroundColor=none;labelBorderColor=none;strokeColor=#FFFFFF;fontFamily=Calibri;fontColor=#FFFFFF;fillColor=#1966FF;direction=east;size=10;flipV=0;flipH=1;" parent="1" vertex="1">
                    <mxGeometry x="191.25" y="870" width="90" height="40" as="geometry"/>
                </mxCell>
                <mxCell id="117" value="&lt;font data-font-src=&quot;https://fonts.googleapis.com/css?family=Lato&quot; face=&quot;Lato&quot;&gt;Updated Reg S1&lt;/font&gt;" style="shape=cube;whiteSpace=wrap;html=1;boundedLbl=1;backgroundOutline=1;darkOpacity=0.05;darkOpacity2=0.1;labelBackgroundColor=none;labelBorderColor=none;strokeColor=#FFFFFF;fontFamily=Calibri;fontColor=#FFFFFF;fillColor=#1966FF;direction=east;size=0;flipV=0;flipH=1;" parent="1" vertex="1">
                    <mxGeometry x="186.25" y="885" width="80" height="30" as="geometry"/>
                </mxCell>
                <mxCell id="118" style="edgeStyle=orthogonalEdgeStyle;rounded=0;html=1;strokeColor=#3399FF;fontFamily=Lato;fontSource=https%3A%2F%2Ffonts.googleapis.com%2Fcss%3Ffamily%3DLato;fontColor=#4D4D4D;startArrow=none;startFill=0;endArrow=blockThin;endFill=1;exitX=0.5;exitY=1;exitDx=0;exitDy=0;exitPerimeter=0;entryX=0.532;entryY=0.012;entryDx=0;entryDy=0;entryPerimeter=0;" parent="1" source="98" target="116" edge="1">
                    <mxGeometry relative="1" as="geometry">
                        <Array as="points">
                            <mxPoint x="233.25" y="850"/>
                        </Array>
                        <mxPoint x="358.7500000000002" y="809.9999999999998" as="sourcePoint"/>
                        <mxPoint x="258.7500000000002" y="845" as="targetPoint"/>
                    </mxGeometry>
                </mxCell>
                <mxCell id="120" value="&lt;font data-font-src=&quot;https://fonts.googleapis.com/css?family=Lato&quot; face=&quot;Lato&quot;&gt;Vertex Reg P1A&lt;/font&gt;" style="shape=cube;whiteSpace=wrap;html=1;boundedLbl=1;backgroundOutline=1;darkOpacity=0.05;darkOpacity2=0.1;labelBackgroundColor=none;labelBorderColor=none;strokeColor=#FFFFFF;fontFamily=Calibri;fontColor=#FFFFFF;fillColor=#FF8000;direction=east;size=10;flipV=0;flipH=1;" parent="1" vertex="1">
                    <mxGeometry x="535" y="775" width="110" height="40" as="geometry"/>
                </mxCell>
                <mxCell id="121" value="&lt;font data-font-src=&quot;https://fonts.googleapis.com/css?family=Lato&quot; face=&quot;Lato&quot;&gt;Vertex Reg P1B&lt;/font&gt;" style="shape=cube;whiteSpace=wrap;html=1;boundedLbl=1;backgroundOutline=1;darkOpacity=0.05;darkOpacity2=0.1;labelBackgroundColor=none;labelBorderColor=none;strokeColor=#FFFFFF;fontFamily=Calibri;fontColor=#FFFFFF;fillColor=#FF8000;direction=east;size=10;flipV=0;flipH=1;" parent="1" vertex="1">
                    <mxGeometry x="535" y="850" width="110" height="40" as="geometry"/>
                </mxCell>
                <mxCell id="292" value="" style="endArrow=classic;html=1;exitX=0.629;exitY=1;exitDx=0;exitDy=0;exitPerimeter=0;entryX=0;entryY=0;entryDx=110;entryDy=25;entryPerimeter=0;edgeStyle=orthogonalEdgeStyle;curved=1;strokeColor=#3399FF;strokeWidth=2;dashed=1;" edge="1" parent="1" source="109" target="120">
                    <mxGeometry width="50" height="50" relative="1" as="geometry">
                        <mxPoint x="450" y="650" as="sourcePoint"/>
                        <mxPoint x="500" y="600" as="targetPoint"/>
                    </mxGeometry>
                </mxCell>
                <mxCell id="293" value="" style="endArrow=classic;html=1;strokeColor=#3399FF;strokeWidth=2;curved=1;entryX=0;entryY=0;entryDx=110;entryDy=25;entryPerimeter=0;exitX=0.629;exitY=1.001;exitDx=0;exitDy=0;exitPerimeter=0;edgeStyle=orthogonalEdgeStyle;" edge="1" parent="1" source="109" target="121">
                    <mxGeometry width="50" height="50" relative="1" as="geometry">
                        <mxPoint x="450" y="730" as="sourcePoint"/>
                        <mxPoint x="520" y="750" as="targetPoint"/>
                    </mxGeometry>
                </mxCell>
                <mxCell id="294" value="" style="endArrow=classic;html=1;dashed=1;strokeColor=#3399FF;strokeWidth=2;curved=1;exitX=0.635;exitY=1.001;exitDx=0;exitDy=0;exitPerimeter=0;entryX=0;entryY=0;entryDx=110;entryDy=25;entryPerimeter=0;edgeStyle=orthogonalEdgeStyle;" edge="1" parent="1" source="112" target="121">
                    <mxGeometry width="50" height="50" relative="1" as="geometry">
                        <mxPoint x="500" y="840" as="sourcePoint"/>
                        <mxPoint x="550" y="790" as="targetPoint"/>
                        <Array as="points">
                            <mxPoint x="460" y="920"/>
                            <mxPoint x="460" y="875"/>
                        </Array>
                    </mxGeometry>
                </mxCell>
                <mxCell id="295" value="" style="endArrow=classic;html=1;strokeColor=#3399FF;strokeWidth=2;curved=1;entryX=0;entryY=0;entryDx=110;entryDy=25;entryPerimeter=0;edgeStyle=orthogonalEdgeStyle;" edge="1" parent="1" target="120">
                    <mxGeometry width="50" height="50" relative="1" as="geometry">
                        <mxPoint x="460" y="920" as="sourcePoint"/>
                        <mxPoint x="545" y="885" as="targetPoint"/>
                        <Array as="points">
                            <mxPoint x="460" y="800"/>
                        </Array>
                    </mxGeometry>
                </mxCell>
                <mxCell id="296" value="Gather PE&lt;br&gt;Read / Write" style="text;html=1;strokeColor=none;fillColor=none;align=center;verticalAlign=middle;whiteSpace=wrap;rounded=0;" vertex="1" parent="1">
                    <mxGeometry x="376.88" y="880" width="80" height="35" as="geometry"/>
                </mxCell>
                <mxCell id="297" value="&amp;nbsp;PE&lt;br&gt;Read / Write" style="text;html=1;strokeColor=none;fillColor=none;align=center;verticalAlign=middle;whiteSpace=wrap;rounded=0;" vertex="1" parent="1">
                    <mxGeometry x="382.5" y="785" width="80" height="35" as="geometry"/>
                </mxCell>
                <mxCell id="299" value="" style="endArrow=blockThin;html=1;rounded=0;dashed=1;strokeColor=#3399FF;fontFamily=Lato;fontSource=https%3A%2F%2Ffonts.googleapis.com%2Fcss%3Ffamily%3DLato;fontColor=#4D4D4D;endFill=1;" edge="1" parent="1">
                    <mxGeometry width="50" height="50" relative="1" as="geometry">
                        <mxPoint x="-130" y="-160.00000000000023" as="sourcePoint"/>
                        <mxPoint x="-40" y="-159.26" as="targetPoint"/>
                    </mxGeometry>
                </mxCell>
                <mxCell id="300" value="&lt;font color=&quot;#4d4d4d&quot;&gt;&lt;span style=&quot;font-size: 14px;&quot;&gt;&lt;b&gt;Control Path&lt;/b&gt;&lt;/span&gt;&lt;/font&gt;" style="text;html=1;strokeColor=none;fillColor=none;align=left;verticalAlign=middle;whiteSpace=wrap;rounded=0;labelBackgroundColor=none;labelBorderColor=none;fontFamily=Lato;fontSource=https%3A%2F%2Ffonts.googleapis.com%2Fcss%3Ffamily%3DLato;fontColor=#FFFFFF;" vertex="1" parent="1">
                    <mxGeometry x="-130" y="-150.74" width="90" height="30" as="geometry"/>
                </mxCell>
                <mxCell id="301" value="" style="endArrow=blockThin;html=1;rounded=0;strokeColor=#3399FF;fontFamily=Lato;fontSource=https%3A%2F%2Ffonts.googleapis.com%2Fcss%3Ffamily%3DLato;fontColor=#4D4D4D;endFill=1;" edge="1" parent="1">
                    <mxGeometry width="50" height="50" relative="1" as="geometry">
                        <mxPoint x="-130" y="-110.00000000000023" as="sourcePoint"/>
                        <mxPoint x="-40" y="-109.25999999999999" as="targetPoint"/>
                    </mxGeometry>
                </mxCell>
                <mxCell id="302" value="&lt;font color=&quot;#4d4d4d&quot;&gt;&lt;span style=&quot;font-size: 14px;&quot;&gt;&lt;b&gt;Data Path&lt;/b&gt;&lt;/span&gt;&lt;/font&gt;" style="text;html=1;strokeColor=none;fillColor=none;align=left;verticalAlign=middle;whiteSpace=wrap;rounded=0;labelBackgroundColor=none;labelBorderColor=none;fontFamily=Lato;fontSource=https%3A%2F%2Ffonts.googleapis.com%2Fcss%3Ffamily%3DLato;fontColor=#FFFFFF;" vertex="1" parent="1">
                    <mxGeometry x="-130" y="-100.74000000000001" width="90" height="30" as="geometry"/>
                </mxCell>
                <mxCell id="314" style="edgeStyle=elbowEdgeStyle;rounded=0;elbow=vertical;html=1;entryX=0.25;entryY=1;entryDx=10;entryDy=0;entryPerimeter=0;strokeColor=#3399FF;strokeWidth=1;fontFamily=Lato;fontSource=https%3A%2F%2Ffonts.googleapis.com%2Fcss%3Ffamily%3DLato;fontColor=default;endArrow=none;endFill=0;dashed=1;" edge="1" parent="1" source="306" target="313">
                    <mxGeometry relative="1" as="geometry"/>
                </mxCell>
                <mxCell id="306" value="&lt;div style=&quot;&quot;&gt;&lt;div style=&quot;font-size: 9.8pt;&quot;&gt;Comparator&lt;/div&gt;&lt;/div&gt;" style="rounded=1;whiteSpace=wrap;html=1;fillColor=#CCE5FF;arcSize=0;strokeColor=#3399FF;strokeWidth=2;shadow=1;glass=0;fontFamily=Lato;fontSource=https%3A%2F%2Ffonts.googleapis.com%2Fcss%3Ffamily%3DLato;labelBackgroundColor=none;fontColor=default;" vertex="1" parent="1">
                    <mxGeometry x="281.25" y="1392.5" width="80.62" height="35" as="geometry"/>
                </mxCell>
                <mxCell id="310" value="&lt;font color=&quot;#4d4d4d&quot;&gt;True &lt;br&gt;When (-1 &amp;lt; x_new &amp;lt; 127)&lt;/font&gt;" style="text;html=1;strokeColor=none;fillColor=none;align=center;verticalAlign=middle;whiteSpace=wrap;rounded=0;labelBackgroundColor=none;labelBorderColor=none;fontFamily=Lato;fontSource=https%3A%2F%2Ffonts.googleapis.com%2Fcss%3Ffamily%3DLato;fontColor=#FFFFFF;" vertex="1" parent="1">
                    <mxGeometry x="251.25" y="1430" width="140.62" height="30" as="geometry"/>
                </mxCell>
                <mxCell id="313" value="&amp;nbsp; &amp;nbsp; Mux" style="shadow=0;dashed=0;align=center;html=1;strokeWidth=1;shape=mxgraph.electrical.abstract.mux2;labelBackgroundColor=none;labelBorderColor=none;strokeColor=#3399FF;fontFamily=Lato;fontSource=https%3A%2F%2Ffonts.googleapis.com%2Fcss%3Ffamily%3DLato;fontColor=#4D4D4D;fillColor=#CCE5FF;direction=south;" vertex="1" parent="1">
                    <mxGeometry x="390" y="1390" width="80" height="40" as="geometry"/>
                </mxCell>
                <mxCell id="317" value="&lt;b&gt;&lt;font color=&quot;#2a7fd4&quot;&gt;0&lt;/font&gt;&lt;/b&gt;" style="rounded=1;whiteSpace=wrap;html=1;shadow=0;glass=0;strokeColor=none;strokeWidth=1;fontFamily=Lato;fontSource=https%3A%2F%2Ffonts.googleapis.com%2Fcss%3Ffamily%3DLato;fontSize=13;fontColor=#1A1A1A;fillColor=none;movable=1;resizable=1;rotatable=1;deletable=1;editable=1;connectable=1;" vertex="1" parent="1">
                    <mxGeometry x="443.75" y="1370" width="15" height="20" as="geometry"/>
                </mxCell>
                <mxCell id="318" value="&lt;b&gt;&lt;font color=&quot;#2a7fd4&quot;&gt;-1&lt;/font&gt;&lt;/b&gt;" style="rounded=1;whiteSpace=wrap;html=1;shadow=0;glass=0;strokeColor=none;strokeWidth=1;fontFamily=Lato;fontSource=https%3A%2F%2Ffonts.googleapis.com%2Fcss%3Ffamily%3DLato;fontSize=13;fontColor=#1A1A1A;fillColor=none;movable=1;resizable=1;rotatable=1;deletable=1;editable=1;connectable=1;" vertex="1" parent="1">
                    <mxGeometry x="391.56" y="1075" width="15" height="20" as="geometry"/>
                </mxCell>
                <mxCell id="320" value="&amp;nbsp; &amp;nbsp; Mux" style="shadow=0;dashed=0;align=center;html=1;strokeWidth=1;shape=mxgraph.electrical.abstract.mux2;labelBackgroundColor=none;labelBorderColor=none;strokeColor=#3399FF;fontFamily=Lato;fontSource=https%3A%2F%2Ffonts.googleapis.com%2Fcss%3Ffamily%3DLato;fontColor=#4D4D4D;fillColor=#CCE5FF;direction=south;" vertex="1" parent="1">
                    <mxGeometry x="593.75" y="1390" width="80" height="40" as="geometry"/>
                </mxCell>
                <mxCell id="323" value="&lt;b&gt;&lt;font color=&quot;#2a7fd4&quot;&gt;0&lt;/font&gt;&lt;/b&gt;" style="rounded=1;whiteSpace=wrap;html=1;shadow=0;glass=0;strokeColor=none;strokeWidth=1;fontFamily=Lato;fontSource=https%3A%2F%2Ffonts.googleapis.com%2Fcss%3Ffamily%3DLato;fontSize=13;fontColor=#1A1A1A;fillColor=none;movable=1;resizable=1;rotatable=1;deletable=1;editable=1;connectable=1;" vertex="1" parent="1">
                    <mxGeometry x="647.5" y="1370" width="15" height="20" as="geometry"/>
                </mxCell>
                <mxCell id="327" style="edgeStyle=orthogonalEdgeStyle;rounded=0;html=1;entryX=0.495;entryY=0.984;entryDx=0;entryDy=0;entryPerimeter=0;strokeColor=#3399FF;strokeWidth=1;fontFamily=Lato;fontSource=https%3A%2F%2Ffonts.googleapis.com%2Fcss%3Ffamily%3DLato;fontColor=#3399FF;endArrow=none;endFill=0;" edge="1" parent="1" source="324" target="320">
                    <mxGeometry relative="1" as="geometry"/>
                </mxCell>
                <mxCell id="324" value="&lt;div style=&quot;&quot;&gt;&lt;div style=&quot;font-size: 9.8pt;&quot;&gt;Comparator&lt;/div&gt;&lt;/div&gt;" style="rounded=1;whiteSpace=wrap;html=1;fillColor=#CCE5FF;arcSize=0;strokeColor=#3399FF;strokeWidth=2;shadow=1;glass=0;fontFamily=Lato;fontSource=https%3A%2F%2Ffonts.googleapis.com%2Fcss%3Ffamily%3DLato;labelBackgroundColor=none;fontColor=default;" vertex="1" parent="1">
                    <mxGeometry x="500" y="1392.5" width="80.62" height="35" as="geometry"/>
                </mxCell>
                <mxCell id="328" value="&lt;font color=&quot;#4d4d4d&quot;&gt;True &lt;br&gt;When (-1 &amp;lt; y_new &amp;lt; 127)&lt;/font&gt;" style="text;html=1;strokeColor=none;fillColor=none;align=center;verticalAlign=middle;whiteSpace=wrap;rounded=0;labelBackgroundColor=none;labelBorderColor=none;fontFamily=Lato;fontSource=https%3A%2F%2Ffonts.googleapis.com%2Fcss%3Ffamily%3DLato;fontColor=#FFFFFF;" vertex="1" parent="1">
                    <mxGeometry x="464.69" y="1430" width="140.62" height="30" as="geometry"/>
                </mxCell>
                <mxCell id="330" value="" style="endArrow=none;html=1;rounded=0;dashed=1;strokeColor=#3399FF;fontFamily=Lato;fontSource=https%3A%2F%2Ffonts.googleapis.com%2Fcss%3Ffamily%3DLato;fontColor=#4D4D4D;" edge="1" parent="1">
                    <mxGeometry width="50" height="50" relative="1" as="geometry">
                        <mxPoint x="65" y="1470.0000000000005" as="sourcePoint"/>
                        <mxPoint x="685" y="1470.0000000000005" as="targetPoint"/>
                    </mxGeometry>
                </mxCell>
                <mxCell id="334" style="edgeStyle=orthogonalEdgeStyle;rounded=0;html=1;entryX=0.5;entryY=0;entryDx=0;entryDy=0;strokeColor=#3399FF;strokeWidth=1;fontFamily=Lato;fontSource=https%3A%2F%2Ffonts.googleapis.com%2Fcss%3Ffamily%3DLato;fontColor=#3399FF;endArrow=none;endFill=0;" edge="1" parent="1" source="331" target="333">
                    <mxGeometry relative="1" as="geometry"/>
                </mxCell>
                <mxCell id="331" value="&lt;span style=&quot;font-family: Helvetica;&quot;&gt;Vertex Ram Write Back Addr Reg h2&lt;/span&gt;" style="rounded=0;whiteSpace=wrap;html=1;labelBackgroundColor=none;labelBorderColor=none;strokeColor=#FFFFFF;fontFamily=Lato;fontSource=https%3A%2F%2Ffonts.googleapis.com%2Fcss%3Ffamily%3DLato;fontColor=#FFFFFF;fillColor=#3399FF;" vertex="1" parent="1">
                    <mxGeometry x="131.26" y="1070" width="111.25" height="40" as="geometry"/>
                </mxCell>
                <mxCell id="336" style="edgeStyle=orthogonalEdgeStyle;rounded=0;html=1;entryX=0.5;entryY=0;entryDx=0;entryDy=0;strokeColor=#3399FF;strokeWidth=1;fontFamily=Lato;fontSource=https%3A%2F%2Ffonts.googleapis.com%2Fcss%3Ffamily%3DLato;fontColor=#3399FF;endArrow=none;endFill=0;" edge="1" parent="1" source="333" target="335">
                    <mxGeometry relative="1" as="geometry"/>
                </mxCell>
                <mxCell id="333" value="&lt;span style=&quot;font-family: Helvetica;&quot;&gt;Vertex Ram Write Back Addr Reg h3&lt;/span&gt;" style="rounded=0;whiteSpace=wrap;html=1;labelBackgroundColor=none;labelBorderColor=none;strokeColor=#FFFFFF;fontFamily=Lato;fontSource=https%3A%2F%2Ffonts.googleapis.com%2Fcss%3Ffamily%3DLato;fontColor=#FFFFFF;fillColor=#3399FF;" vertex="1" parent="1">
                    <mxGeometry x="131.25" y="1250" width="111.25" height="35" as="geometry"/>
                </mxCell>
                <mxCell id="335" value="&lt;span style=&quot;font-family: Helvetica;&quot;&gt;Vertex Ram Write Back Addr Reg h3&lt;/span&gt;" style="rounded=0;whiteSpace=wrap;html=1;labelBackgroundColor=none;labelBorderColor=none;strokeColor=#FFFFFF;fontFamily=Lato;fontSource=https%3A%2F%2Ffonts.googleapis.com%2Fcss%3Ffamily%3DLato;fontColor=#FFFFFF;fillColor=#3399FF;" vertex="1" parent="1">
                    <mxGeometry x="131.26" y="1480" width="111.25" height="35" as="geometry"/>
                </mxCell>
                <mxCell id="339" value="" style="group" vertex="1" connectable="0" parent="1">
                    <mxGeometry x="280" y="1550" width="165" height="60" as="geometry"/>
                </mxCell>
                <mxCell id="329" value="&lt;font data-font-src=&quot;https://fonts.googleapis.com/css?family=Lato&quot; face=&quot;Lato&quot;&gt;Updated Reg P1&lt;/font&gt;" style="shape=cube;whiteSpace=wrap;html=1;boundedLbl=1;backgroundOutline=1;darkOpacity=0.05;darkOpacity2=0.1;labelBackgroundColor=none;labelBorderColor=none;strokeColor=#FFFFFF;fontFamily=Calibri;fontColor=#FFFFFF;fillColor=#FF8000;direction=east;size=10;flipV=0;flipH=1;" vertex="1" parent="339">
                    <mxGeometry x="3.75" width="161.25" height="60" as="geometry"/>
                </mxCell>
                <mxCell id="337" value="&lt;font color=&quot;#ffffff&quot;&gt;ADDR&lt;/font&gt;" style="text;html=1;strokeColor=none;fillColor=none;align=center;verticalAlign=middle;whiteSpace=wrap;rounded=0;labelBackgroundColor=none;labelBorderColor=none;fontFamily=Lato;fontSource=https%3A%2F%2Ffonts.googleapis.com%2Fcss%3Ffamily%3DLato;fontColor=#3399FF;" vertex="1" parent="339">
                    <mxGeometry y="10" width="60" height="17.75" as="geometry"/>
                </mxCell>
                <mxCell id="338" value="&lt;font color=&quot;#ffffff&quot;&gt;DATA&lt;/font&gt;" style="text;html=1;strokeColor=none;fillColor=none;align=center;verticalAlign=middle;whiteSpace=wrap;rounded=0;labelBackgroundColor=none;labelBorderColor=none;fontFamily=Lato;fontSource=https%3A%2F%2Ffonts.googleapis.com%2Fcss%3Ffamily%3DLato;fontColor=#3399FF;" vertex="1" parent="339">
                    <mxGeometry x="50" y="10" width="60" height="18.88" as="geometry"/>
                </mxCell>
                <mxCell id="340" style="edgeStyle=orthogonalEdgeStyle;rounded=0;html=1;strokeColor=#3399FF;strokeWidth=1;fontFamily=Lato;fontSource=https%3A%2F%2Ffonts.googleapis.com%2Fcss%3Ffamily%3DLato;fontColor=#FFFFFF;endArrow=none;endFill=0;" edge="1" parent="1" source="335" target="337">
                    <mxGeometry relative="1" as="geometry">
                        <Array as="points">
                            <mxPoint x="187" y="1530"/>
                            <mxPoint x="310" y="1530"/>
                        </Array>
                    </mxGeometry>
                </mxCell>
                <mxCell id="345" style="edgeStyle=orthogonalEdgeStyle;rounded=0;html=1;entryX=1;entryY=0.5;entryDx=0;entryDy=-5;entryPerimeter=0;strokeColor=#3399FF;strokeWidth=1;fontFamily=Lato;fontSource=https%3A%2F%2Ffonts.googleapis.com%2Fcss%3Ffamily%3DLato;fontColor=#FFFFFF;endArrow=none;endFill=0;" edge="1" parent="1" source="343" target="313">
                    <mxGeometry relative="1" as="geometry"/>
                </mxCell>
                <mxCell id="348" style="edgeStyle=orthogonalEdgeStyle;rounded=0;html=1;entryX=0.5;entryY=0;entryDx=0;entryDy=0;strokeColor=#3399FF;strokeWidth=1;fontFamily=Lato;fontSource=https%3A%2F%2Ffonts.googleapis.com%2Fcss%3Ffamily%3DLato;fontColor=#FFFFFF;endArrow=none;endFill=0;" edge="1" parent="1" source="343" target="338">
                    <mxGeometry relative="1" as="geometry">
                        <Array as="points">
                            <mxPoint x="435" y="1530"/>
                            <mxPoint x="360" y="1530"/>
                        </Array>
                    </mxGeometry>
                </mxCell>
                <mxCell id="343" value="&lt;font face=&quot;Helvetica&quot;&gt;x write back&lt;/font&gt;" style="rounded=0;whiteSpace=wrap;html=1;labelBackgroundColor=none;labelBorderColor=none;strokeColor=#FFFFFF;fontFamily=Lato;fontSource=https%3A%2F%2Ffonts.googleapis.com%2Fcss%3Ffamily%3DLato;fontColor=#FFFFFF;fillColor=#3399FF;" vertex="1" parent="1">
                    <mxGeometry x="396.25" y="1480" width="77.5" height="35" as="geometry"/>
                </mxCell>
                <mxCell id="346" style="edgeStyle=orthogonalEdgeStyle;rounded=0;html=1;entryX=1;entryY=0.5;entryDx=0;entryDy=-5;entryPerimeter=0;strokeColor=#3399FF;strokeWidth=1;fontFamily=Lato;fontSource=https%3A%2F%2Ffonts.googleapis.com%2Fcss%3Ffamily%3DLato;fontColor=#FFFFFF;endArrow=none;endFill=0;" edge="1" parent="1" source="344" target="320">
                    <mxGeometry relative="1" as="geometry"/>
                </mxCell>
                <mxCell id="349" style="edgeStyle=orthogonalEdgeStyle;rounded=0;html=1;entryX=0.5;entryY=0;entryDx=0;entryDy=0;strokeColor=#3399FF;strokeWidth=1;fontFamily=Lato;fontSource=https%3A%2F%2Ffonts.googleapis.com%2Fcss%3Ffamily%3DLato;fontColor=#FFFFFF;endArrow=none;endFill=0;" edge="1" parent="1" source="344" target="338">
                    <mxGeometry relative="1" as="geometry">
                        <Array as="points">
                            <mxPoint x="639" y="1530"/>
                            <mxPoint x="360" y="1530"/>
                        </Array>
                    </mxGeometry>
                </mxCell>
                <mxCell id="344" value="&lt;font face=&quot;Helvetica&quot;&gt;y write back&lt;/font&gt;" style="rounded=0;whiteSpace=wrap;html=1;labelBackgroundColor=none;labelBorderColor=none;strokeColor=#FFFFFF;fontFamily=Lato;fontSource=https%3A%2F%2Ffonts.googleapis.com%2Fcss%3Ffamily%3DLato;fontColor=#FFFFFF;fillColor=#3399FF;" vertex="1" parent="1">
                    <mxGeometry x="599" y="1482.5" width="80" height="35" as="geometry"/>
                </mxCell>
                <mxCell id="350" value="" style="group" vertex="1" connectable="0" parent="1">
                    <mxGeometry x="280" y="1710" width="165" height="60" as="geometry"/>
                </mxCell>
                <mxCell id="351" value="&lt;font data-font-src=&quot;https://fonts.googleapis.com/css?family=Lato&quot; face=&quot;Lato&quot;&gt;Updated Reg P1&lt;/font&gt;" style="shape=cube;whiteSpace=wrap;html=1;boundedLbl=1;backgroundOutline=1;darkOpacity=0.05;darkOpacity2=0.1;labelBackgroundColor=none;labelBorderColor=none;strokeColor=#FFFFFF;fontFamily=Calibri;fontColor=#FFFFFF;fillColor=#FF8000;direction=east;size=10;flipV=0;flipH=1;" vertex="1" parent="350">
                    <mxGeometry x="3.75" width="161.25" height="60" as="geometry"/>
                </mxCell>
                <mxCell id="352" value="&lt;font color=&quot;#ffffff&quot;&gt;ADDR&lt;/font&gt;" style="text;html=1;strokeColor=none;fillColor=none;align=center;verticalAlign=middle;whiteSpace=wrap;rounded=0;labelBackgroundColor=none;labelBorderColor=none;fontFamily=Lato;fontSource=https%3A%2F%2Ffonts.googleapis.com%2Fcss%3Ffamily%3DLato;fontColor=#3399FF;" vertex="1" parent="350">
                    <mxGeometry y="42.25" width="60" height="17.75" as="geometry"/>
                </mxCell>
                <mxCell id="353" value="&lt;font color=&quot;#ffffff&quot;&gt;DATA&lt;/font&gt;" style="text;html=1;strokeColor=none;fillColor=none;align=center;verticalAlign=middle;whiteSpace=wrap;rounded=0;labelBackgroundColor=none;labelBorderColor=none;fontFamily=Lato;fontSource=https%3A%2F%2Ffonts.googleapis.com%2Fcss%3Ffamily%3DLato;fontColor=#3399FF;" vertex="1" parent="350">
                    <mxGeometry x="50" y="41.120000000000005" width="60" height="18.88" as="geometry"/>
                </mxCell>
                <mxCell id="354" value="&lt;font color=&quot;#4d4d4d&quot;&gt;&lt;span style=&quot;font-size: 14px;&quot;&gt;&lt;b&gt;16b&lt;br&gt;200Mhz&lt;br&gt;Stream&lt;br&gt;&lt;/b&gt;&lt;/span&gt;&lt;/font&gt;" style="text;html=1;strokeColor=none;fillColor=none;align=center;verticalAlign=middle;whiteSpace=wrap;rounded=0;labelBackgroundColor=none;labelBorderColor=none;fontFamily=Lato;fontSource=https%3A%2F%2Ffonts.googleapis.com%2Fcss%3Ffamily%3DLato;fontColor=#FFFFFF;" vertex="1" parent="1">
                    <mxGeometry x="383.75" y="1850" width="60" height="50" as="geometry"/>
                </mxCell>
                <mxCell id="355" value="" style="html=1;shadow=1;align=center;verticalAlign=middle;shape=mxgraph.arrows2.arrow;dy=0.61;dx=26.4;direction=south;notch=0;glass=0;strokeColor=#3399FF;strokeWidth=2;fontSize=10;fontColor=#1A1A1A;fillColor=#E6E6E6;" vertex="1" parent="1">
                    <mxGeometry x="339.38" y="1840" width="41.25" height="90" as="geometry"/>
                </mxCell>
                <mxCell id="361" style="edgeStyle=orthogonalEdgeStyle;rounded=0;html=1;entryX=0.5;entryY=1;entryDx=0;entryDy=0;strokeColor=#3399FF;strokeWidth=1;fontFamily=Lato;fontSource=https%3A%2F%2Ffonts.googleapis.com%2Fcss%3Ffamily%3DLato;fontColor=#FFFFFF;endArrow=none;endFill=0;" edge="1" parent="1" source="356" target="352">
                    <mxGeometry relative="1" as="geometry"/>
                </mxCell>
                <mxCell id="356" value="" style="rounded=1;whiteSpace=wrap;html=1;shadow=1;glass=0;strokeColor=none;strokeWidth=1;fontFamily=Lato;fontSource=https%3A%2F%2Ffonts.googleapis.com%2Fcss%3Ffamily%3DLato;fontSize=13;fontColor=#1A1A1A;fillColor=#2A7FD4;arcSize=10;" vertex="1" parent="1">
                    <mxGeometry x="150" y="1720" width="60" height="40" as="geometry"/>
                </mxCell>
                <mxCell id="357" value="&lt;b&gt;&lt;font color=&quot;#2a7fd4&quot;&gt;0&lt;/font&gt;&lt;/b&gt;" style="rounded=1;whiteSpace=wrap;html=1;shadow=0;glass=0;strokeColor=none;strokeWidth=1;fontFamily=Lato;fontSource=https%3A%2F%2Ffonts.googleapis.com%2Fcss%3Ffamily%3DLato;fontSize=13;fontColor=#1A1A1A;fillColor=#FFFFFF;" vertex="1" parent="1">
                    <mxGeometry x="154.28571428571428" y="1725" width="15" height="30" as="geometry"/>
                </mxCell>
                <mxCell id="358" value="&lt;b&gt;&lt;font color=&quot;#2a7fd4&quot;&gt;1&lt;/font&gt;&lt;/b&gt;" style="rounded=1;whiteSpace=wrap;html=1;shadow=0;glass=0;strokeColor=none;strokeWidth=1;fontFamily=Lato;fontSource=https%3A%2F%2Ffonts.googleapis.com%2Fcss%3Ffamily%3DLato;fontSize=13;fontColor=#1A1A1A;fillColor=#B8D1EA;" vertex="1" parent="1">
                    <mxGeometry x="171.42857142857144" y="1725" width="15" height="30" as="geometry"/>
                </mxCell>
                <mxCell id="359" value="&lt;b&gt;&lt;font color=&quot;#ffffff&quot;&gt;1&lt;/font&gt;&lt;/b&gt;" style="rounded=1;whiteSpace=wrap;html=1;shadow=0;glass=0;strokeColor=none;strokeWidth=1;fontFamily=Lato;fontSource=https%3A%2F%2Ffonts.googleapis.com%2Fcss%3Ffamily%3DLato;fontSize=13;fontColor=#1A1A1A;fillColor=#99CCFF;" vertex="1" parent="1">
                    <mxGeometry x="188.57142857142856" y="1725" width="15" height="30" as="geometry"/>
                </mxCell>
                <mxCell id="360" value="&lt;font color=&quot;#4d4d4d&quot;&gt;Pointer&lt;br&gt;0 - 63&lt;br&gt;&lt;/font&gt;" style="text;html=1;strokeColor=none;fillColor=none;align=center;verticalAlign=middle;whiteSpace=wrap;rounded=0;labelBackgroundColor=none;labelBorderColor=none;fontFamily=Lato;fontSource=https%3A%2F%2Ffonts.googleapis.com%2Fcss%3Ffamily%3DLato;fontColor=#FFFFFF;" vertex="1" parent="1">
                    <mxGeometry x="107.00999999999999" y="1680" width="140.62" height="30" as="geometry"/>
                </mxCell>
                <mxCell id="362" style="edgeStyle=orthogonalEdgeStyle;rounded=0;html=1;entryX=0;entryY=0.5;entryDx=0;entryDy=0;entryPerimeter=0;strokeColor=#3399FF;strokeWidth=1;fontFamily=Lato;fontSource=https%3A%2F%2Ffonts.googleapis.com%2Fcss%3Ffamily%3DLato;fontColor=#FFFFFF;endArrow=none;endFill=0;" edge="1" parent="1" source="353" target="355">
                    <mxGeometry relative="1" as="geometry"/>
                </mxCell>
            </root>
        </mxGraphModel>
    </diagram>
</mxfile>